<?xml version="1.0" encoding="utf-8"?>
<!-- Generator: Adobe Illustrator 27.5.0, SVG Export Plug-In . SVG Version: 6.00 Build 0)  -->
<svg version="1.1" id="Layer_1" xmlns="http://www.w3.org/2000/svg" xmlns:xlink="http://www.w3.org/1999/xlink" x="0px" y="0px"
	 viewBox="0 0 378.783 265.896" style="enable-background:new 0 0 378.783 265.896;" xml:space="preserve">
<g>
	<ellipse style="fill:#4583A7;" cx="197.951" cy="239.739" rx="171.362" ry="13.972"/>
	<ellipse style="fill:#2F5E78;" cx="198.521" cy="238.329" rx="136.32" ry="9.575"/>
	<g>
		<path style="fill:#BDEFE8;" d="M241.551,16.76c15.973-2.967,32.669-1.559,47.526,5.233c19.093,8.728,34.344,24.808,43.935,43.482
			c22.317,43.455,23.168,112.789-31.127,132.18c-27.928,9.974-56.839-2.186-85.348,1.188c-25.848,3.059-48.139,18.889-73.84,22.388
			c-39.812,5.42-78.746-26.911-87.304-64.817c-3.094-13.702-3.367-28.008,1.095-41.481c4.813-14.533,14.444-27.83,27.909-35.265
			c8.263-4.563,19.247-4.912,28.562-5.148c15.918-0.403,29.984-0.321,44.975-6.557c16.017-6.663,28.052-19.214,40.732-30.452
			C210.582,26.947,225.711,19.703,241.551,16.76z"/>
		<path style="fill:#BDEFE8;" d="M149.462,51.178c-1.685,3.061,0.638,6.057,4.39,6.529c0.279,0.035,0.566,0.056,0.86,0.062
			c6.445,0.136,15.822-6.849,10.083-10.236C160.992,45.291,152.063,46.453,149.462,51.178z"/>
		<path style="fill:#BDEFE8;" d="M72.628,207.643c3.602-0.504,5.156-4.43,3.721-7.975c-0.107-0.264-0.23-0.525-0.37-0.783
			c-3.076-5.658-14.04-9.291-14.252-2.161C61.587,201.446,67.068,208.421,72.628,207.643z"/>
		<path style="fill:#BDEFE8;" d="M337.337,40.592c3.591,0.01,5.748-3.612,4.932-7.279c-0.061-0.272-0.138-0.545-0.232-0.817
			c-2.067-5.961-12.15-11.041-13.525-4.1C327.6,32.995,331.794,40.578,337.337,40.592z"/>
		<path style="fill:#BDEFE8;" d="M177.206,41.04c2.463,1.293,1.099,5.121-1.915,5.745c-2.941,0.608-4.782-1.918-3.373-4.012
			c0.959-1.425,3.511-2.595,5.21-1.772C177.155,41.014,177.181,41.027,177.206,41.04z"/>
		<path style="fill:#BDEFE8;" d="M255.08,13.799c16.275-2.421,33.244-0.802,48.391,5.823c13.07,5.717,24.599,14.71,33.867,25.508
			c15.046,17.53,23.977,39.933,27.254,62.675c2.908,20.177,1.372,41.94-8.302,60.214c-4.736,8.946-11.439,16.769-19.701,22.636
			c-10.782,7.657-23.737,11.956-36.883,12.915c-16.242,1.185-32.35-2.031-48.433-3.738c-8.065-0.856-16.202-1.355-24.303-0.75
			c-7.499,0.56-14.876,2.129-22.093,4.2c-14.799,4.246-28.953,10.531-43.924,14.21c-13.705,3.368-27.574,3.895-41.267,0.191
			c-25.152-6.804-47.009-25.518-58.343-48.89c-6.472-13.345-9.361-28.703-8.005-43.484c1.362-14.844,7.751-29.206,18.083-39.989
			c4.78-4.989,10.514-9.388,16.858-12.196c6.971-3.085,14.845-3.635,22.37-3.789c15.678-0.321,31.515,0.894,46.876-3.023
			c14.64-3.734,26.963-12.071,38.508-21.53c5.81-4.76,11.377-9.894,17.484-14.276c6.209-4.455,12.992-8.108,20.097-10.917
			C240.525,16.855,247.735,14.931,255.08,13.799c0.301-0.046,0.173-0.504-0.126-0.458c-15.249,2.351-30.019,8.183-42.478,17.336
			c-5.958,4.377-11.439,9.406-17.161,14.082c-6.087,4.973-12.388,9.736-19.253,13.594c-7.122,4.002-14.801,6.84-22.812,8.443
			c-8.041,1.609-16.252,1.981-24.432,2.042c-14.758,0.11-31.113-1.8-44.477,5.77c-12.051,6.827-21.199,18.087-26.533,30.772
			c-6.229,14.811-6.473,31.289-2.883,46.799c5.852,25.288,24.424,47.165,47.209,59.095c11.53,6.037,24.418,9.582,37.471,9.574
			c15.268-0.009,29.98-5.013,44.211-10.041c14.896-5.262,29.915-10.68,45.853-11.412c16.855-0.774,33.477,2.811,50.193,4.29
			c15.332,1.356,30.622,0.469,44.87-5.794c9.59-4.216,18.169-10.559,24.773-18.712c12.964-16.005,17.445-37.181,16.799-57.393
			c-0.687-21.491-6.746-43.357-17.765-61.862c-7.165-12.034-16.652-22.739-27.988-30.992c-12.486-9.089-27.005-14.778-42.399-16.267
			c-7.729-0.747-15.52-0.466-23.196,0.676C254.652,13.385,254.78,13.843,255.08,13.799z"/>
		<path style="fill:#BDEFE8;" d="M244.893,14.036c16.274-2.421,33.244-0.802,48.391,5.823c13.071,5.717,24.599,14.71,33.867,25.508
			c15.046,17.53,23.977,39.933,27.254,62.675c2.908,20.177,1.372,41.939-8.302,60.213c-4.736,8.945-11.439,16.769-19.702,22.637
			c-10.782,7.656-23.737,11.956-36.883,12.915c-16.242,1.185-32.349-2.031-48.432-3.738c-8.065-0.856-16.202-1.355-24.303-0.75
			c-7.499,0.56-14.876,2.129-22.093,4.2c-14.799,4.246-28.953,10.531-43.924,14.21c-13.705,3.368-27.574,3.895-41.267,0.191
			c-25.153-6.804-47.009-25.518-58.343-48.89c-6.472-13.345-9.361-28.703-8.005-43.484c1.362-14.844,7.751-29.206,18.083-39.989
			c4.78-4.989,10.514-9.388,16.858-12.196c6.971-3.085,14.845-3.635,22.37-3.789c15.678-0.321,31.515,0.894,46.876-3.023
			c14.64-3.733,26.963-12.07,38.508-21.53c5.81-4.76,11.377-9.894,17.484-14.276c6.209-4.455,12.992-8.108,20.097-10.917
			C230.338,17.092,237.548,15.168,244.893,14.036c0.301-0.046,0.173-0.504-0.126-0.458c-15.249,2.351-30.019,8.183-42.478,17.336
			c-5.958,4.377-11.439,9.406-17.161,14.082c-6.087,4.973-12.388,9.736-19.253,13.594c-7.122,4.002-14.801,6.84-22.812,8.443
			c-8.041,1.61-16.252,1.981-24.432,2.042c-14.758,0.11-31.113-1.8-44.477,5.77c-12.051,6.826-21.198,18.087-26.533,30.772
			c-6.229,14.811-6.473,31.289-2.883,46.799c5.853,25.288,24.424,47.165,47.209,59.095c11.53,6.037,24.418,9.582,37.471,9.574
			c15.268-0.009,29.981-5.013,44.211-10.041c14.896-5.262,29.915-10.68,45.853-11.412c16.855-0.774,33.477,2.811,50.193,4.29
			c15.333,1.356,30.622,0.469,44.87-5.794c9.59-4.216,18.169-10.559,24.773-18.712c12.964-16.005,17.445-37.182,16.799-57.393
			c-0.687-21.491-6.746-43.357-17.765-61.862c-7.165-12.034-16.652-22.739-27.988-30.992c-12.486-9.089-27.005-14.778-42.399-16.267
			c-7.729-0.747-15.52-0.466-23.196,0.676C244.465,13.622,244.593,14.08,244.893,14.036z"/>
		<path style="fill:#BDEFE8;" d="M236.978,10.099c16.342-3.996,33.751-4.193,49.883,0.894c13.963,4.403,26.698,12.413,37.128,22.641
			c16.406,16.087,26.921,37.754,31.475,60.144c4.138,20.347,3.343,42.544-6.206,61.329c-4.85,9.542-11.909,17.831-20.552,24.145
			c-11.615,8.486-25.388,13.261-39.628,14.83c-16.186,1.784-32.475,0.1-48.704,0.364c-8.087,0.132-16.188,0.76-24.105,2.479
			c-7.416,1.61-14.609,4.094-21.635,6.94c-14.201,5.751-27.804,12.991-42.406,17.733c-13.652,4.434-27.767,5.995-41.954,3.409
			c-25.65-4.675-49.348-21.182-62.166-43.957c-7.449-13.236-11.069-29.072-9.794-44.222c1.269-15.069,7.964-29.746,18.433-40.653
			c5.018-5.229,11.038-9.933,17.834-12.583c7.148-2.788,14.886-3.747,22.47-4.51c15.339-1.543,30.921-2.433,45.491-7.921
			c14.33-5.398,26.075-14.973,37.073-25.386c5.446-5.157,10.667-10.619,16.471-15.38c5.988-4.913,12.576-9.09,19.525-12.506
			C222.434,14.536,229.605,11.941,236.978,10.099c0.296-0.074,0.171-0.532-0.126-0.458c-15.034,3.756-29.319,10.7-41.292,20.575
			c-5.855,4.829-11.128,10.358-16.641,15.565c-5.777,5.456-11.736,10.76-18.278,15.29c-6.702,4.641-13.978,8.324-21.729,10.866
			c-7.846,2.574-16.002,3.961-24.186,4.913c-7.81,0.908-15.666,1.404-23.465,2.411c-7.24,0.935-14.681,2.353-21.158,5.878
			c-12.377,6.734-21.851,18.639-27.25,31.493c-6.437,15.325-6.531,32.108-2.07,47.985c7.063,25.137,27.24,45.36,51.018,55.362
			c12.323,5.183,25.825,7.638,39.18,6.587c15.092-1.188,29.314-7.013,42.998-13.119c14.418-6.433,28.804-13.434,44.413-16.474
			c16.731-3.259,33.847-1.759,50.76-1.604c16.103,0.148,32.19-1.246,46.958-8.156c10.166-4.757,19.32-11.63,26.284-20.471
			c13.014-16.524,17.197-38.101,15.565-58.715c-1.699-21.46-9.201-43.007-21.639-60.619c-8.156-11.549-18.69-21.456-30.894-28.624
			C291.852,10.81,276.51,6.614,260.76,6.648c-8.059,0.017-16.085,1.081-23.908,2.994C236.555,9.714,236.68,10.172,236.978,10.099z"
			/>
	</g>
	<g>
		<g>
			<g>
				<rect x="183.471" y="46.151" style="fill:#FCFCFC;" width="60.291" height="87.126"/>
				<rect x="185.797" y="47.987" style="fill:#BDD5D6;" width="55.742" height="83.165"/>
				<rect x="186.448" y="49.135" style="fill:#D8EFF3;" width="54.338" height="81.156"/>
			</g>
			<rect x="211.725" y="47.987" style="fill:#FCFCFC;" width="3.783" height="85.256"/>
			<g>
				<rect x="185.119" y="75.203" style="fill:#FCFCFC;" width="56.995" height="3.331"/>
				<rect x="185.119" y="104.073" style="fill:#FCFCFC;" width="56.995" height="3.331"/>
			</g>
		</g>
		<g>
			<g>
				<rect x="255.863" y="46.151" style="fill:#FCFCFC;" width="60.291" height="87.126"/>
				<rect x="258.189" y="47.987" style="fill:#BDD5D6;" width="55.742" height="83.165"/>
				<rect x="258.84" y="49.135" style="fill:#D8EFF3;" width="54.338" height="81.156"/>
			</g>
			<rect x="284.117" y="47.987" style="fill:#FCFCFC;" width="3.783" height="85.256"/>
			<g>
				<rect x="257.511" y="75.203" style="fill:#FCFCFC;" width="56.995" height="3.331"/>
				<rect x="257.511" y="104.073" style="fill:#FCFCFC;" width="56.995" height="3.331"/>
			</g>
		</g>
	</g>
	<g>
		<g>
			<g>
				<rect x="315.699" y="222.565" style="fill:#553C2A;" width="2.492" height="17.174"/>
				<rect x="354.876" y="222.565" style="fill:#553C2A;" width="2.492" height="17.174"/>
			</g>
			<rect x="313.305" y="194.119" style="fill:#B1693F;" width="46.457" height="29.2"/>
			<rect x="313.305" y="190.068" style="fill:#7E4A28;" width="46.457" height="4.051"/>
			<rect x="315.635" y="196.991" style="fill:#CEA687;" width="41.798" height="24.819"/>
			<g>
				<rect x="315.635" y="208.259" style="fill:#B1693F;" width="41.798" height="1.509"/>
				<rect x="315.635" y="221.81" style="fill:#B1693F;" width="41.798" height="1.509"/>
			</g>
			<g>
				<path style="fill:#7B5942;" d="M340.441,200.013h-7.814c-0.444,0-0.807-0.363-0.807-0.807l0,0c0-0.444,0.363-0.807,0.807-0.807
					h7.814c0.444,0,0.807,0.363,0.807,0.807l0,0C341.247,199.65,340.884,200.013,340.441,200.013z"/>
				<g>
					<path style="fill:#624733;" d="M332.627,199.206h7.814c0.296,0,0.554,0.164,0.694,0.403c0.07-0.119,0.113-0.256,0.113-0.403
						c0-0.444-0.363-0.807-0.807-0.807h-7.814c-0.444,0-0.807,0.363-0.807,0.807c0,0.147,0.043,0.284,0.113,0.403
						C332.073,199.37,332.331,199.206,332.627,199.206z"/>
				</g>
			</g>
			<g>
				<path style="fill:#7B5942;" d="M340.441,213.245h-7.814c-0.444,0-0.807-0.363-0.807-0.807l0,0c0-0.443,0.363-0.806,0.807-0.806
					h7.814c0.444,0,0.807,0.363,0.807,0.806l0,0C341.247,212.882,340.884,213.245,340.441,213.245z"/>
				<g>
					<path style="fill:#624733;" d="M332.627,212.438h7.814c0.296,0,0.554,0.164,0.694,0.403c0.07-0.119,0.113-0.256,0.113-0.403
						c0-0.443-0.363-0.806-0.807-0.806h-7.814c-0.444,0-0.807,0.363-0.807,0.806c0,0.147,0.043,0.284,0.113,0.403
						C332.073,212.602,332.331,212.438,332.627,212.438z"/>
				</g>
			</g>
		</g>
		<g>
			<path style="fill:#5A271E;" d="M327.076,190.283v0.759c0,0.367,2.881,0.664,6.435,0.664s6.435-0.297,6.435-0.664v-0.759H327.076z
				"/>
			<g>
				<path style="fill:#9C4E42;" d="M339.946,190.283c0,0.367-2.881,0.664-6.435,0.664s-6.435-0.298-6.435-0.664
					s2.881-0.664,6.435-0.664S339.946,189.916,339.946,190.283z"/>
				<g>
					<path style="fill:#9C4E42;" d="M337.971,178.917c-0.374-0.062-0.728,0.19-0.79,0.564l-1.708,10.234
						c-0.01,0.057-0.009,0.114-0.005,0.169h1.368l1.699-10.177C338.597,179.333,338.345,178.979,337.971,178.917z"/>
					<path style="fill:#7B7C7F;" d="M338.036,180.411c0.152-0.03,0.288-0.094,0.411-0.179l0.088-0.526
						c0.062-0.374-0.19-0.728-0.564-0.79c-0.374-0.062-0.728,0.19-0.79,0.564l-0.083,0.499
						C337.318,180.278,337.645,180.489,338.036,180.411z"/>
					<path style="fill:#9C4E42;" d="M337.858,180.281c-0.228,0-0.45-0.113-0.581-0.32l-14.008-22.148
						c-0.203-0.32-0.107-0.744,0.213-0.947c0.321-0.203,0.745-0.107,0.947,0.213l14.008,22.148c0.202,0.32,0.107,0.744-0.213,0.947
						C338.111,180.246,337.984,180.281,337.858,180.281z"/>
					<path style="fill:#7B7C7F;" d="M326.589,160.492l-2.159-3.413c-0.203-0.321-0.626-0.416-0.947-0.213
						c-0.32,0.203-0.416,0.627-0.213,0.947l2.276,3.598C325.883,161.093,326.232,160.788,326.589,160.492z"/>
					<path style="fill:#3E4042;" d="M337.972,179.606c0,0.11-0.089,0.199-0.199,0.199s-0.199-0.089-0.199-0.199
						c0-0.11,0.089-0.199,0.199-0.199S337.972,179.496,337.972,179.606z"/>
					<g>
						<path style="fill:#B46651;" d="M327.467,159.139c0.008,0.001,0.017,0.003,0.023,0c0.144-0.086-0.568-1.545-1.591-3.258
							c-1.022-1.714-1.968-3.033-2.112-2.947l-0.005-0.008l-14.054,5.115l6.478,10.856L327.467,159.139z"/>
						<path style="fill:#5A271E;" d="M316.207,168.896c-0.144,0.086-1.711-2.275-3.5-5.272c-1.789-2.998-3.122-5.498-2.978-5.583
							c0.144-0.086,1.711,2.274,3.5,5.272C315.017,166.311,316.351,168.81,316.207,168.896z"/>
					</g>
				</g>
			</g>
		</g>
		<g>
			<polygon style="fill:#562C1E;" points="352.247,181.283 357.133,192.116 351.252,192.116 			"/>
			<polygon style="fill:#713E2E;" points="337.296,192.942 341.793,175.849 356.322,175.849 352.085,192.942 			"/>
			<polygon style="fill:#B46651;" points="337.004,192.942 341.501,175.849 356.031,175.849 351.793,192.942 			"/>
			<polygon style="fill:#6ABBB7;" points="338.972,191.912 342.919,176.993 354.15,176.993 350.553,191.912 			"/>
			<g>
				<polygon style="fill:#45807E;" points="354.02,177.53 354.15,176.993 342.919,176.993 338.972,191.912 339.363,191.912 
					343.168,177.53 				"/>
				<polygon style="fill:#6ABBB7;" points="354.02,177.53 343.168,177.53 339.363,191.912 350.553,191.912 				"/>
			</g>
		</g>
		<g>
			<g>
				<path style="fill:#D8804E;" d="M323.684,181.486h-4.752l0.896,11.255c0,0.193,1.727,0.349,3.856,0.349
					c2.13,0,3.857-0.156,3.857-0.349l0.896-11.255H323.684z"/>
				<path style="opacity:0.5;fill:#ABAC98;" d="M325.843,181.486c-0.004,0.224-0.007,0.448-0.009,0.673
					c-0.023,2.248,0.008,4.497-0.038,6.745c-0.028,1.381-0.085,2.763-0.202,4.14c1.162-0.06,1.947-0.173,1.947-0.303l0.896-11.255
					H325.843z"/>
				<path style="fill:#54564C;" d="M328.436,181.486c0,0.185-2.128,0.335-4.752,0.335c-2.624,0-4.752-0.15-4.752-0.335
					c0-0.185,2.128-0.335,4.752-0.335C326.309,181.152,328.436,181.301,328.436,181.486z"/>
			</g>
			<g>
				<path style="fill:#49A199;" d="M314.341,185.616c0.005-0.004,0.01-0.009,0.015-0.013c0.182-0.14,0.412-0.289,0.516-0.501
					c0.042-0.087,0.051-0.185-0.014-0.262c-0.053-0.063-0.13-0.087-0.211-0.073c-0.108,0.019-0.207,0.084-0.296,0.162
					c0-0.008,0-0.015,0-0.023c0.005-0.243,0.015-0.485,0.027-0.726c0.142-0.198,0.309-0.375,0.504-0.517
					c0.17-0.123,0.343-0.242,0.506-0.374c0.143-0.116,0.318-0.256,0.384-0.435c0.052-0.142-0.031-0.286-0.153-0.363
					c-0.12-0.075-0.262-0.052-0.383,0.006c-0.158,0.074-0.292,0.2-0.412,0.325c-0.141,0.146-0.267,0.307-0.386,0.471
					c0.023-0.258,0.048-0.517,0.081-0.774c0.105-0.195,0.228-0.382,0.379-0.555c0.214-0.245,0.463-0.456,0.723-0.649
					c0.114-0.085,0.228-0.171,0.349-0.247c0.101-0.064,0.204-0.123,0.301-0.193c0.179-0.129,0.322-0.286,0.325-0.518
					c0.002-0.146-0.083-0.256-0.228-0.277c-0.162-0.024-0.334,0.034-0.484,0.091c-0.155,0.06-0.304,0.134-0.446,0.219
					c-0.242,0.146-0.466,0.326-0.655,0.537c0.05-0.24,0.103-0.48,0.162-0.718c0.166-0.256,0.365-0.492,0.59-0.702
					c0.262-0.244,0.554-0.447,0.865-0.623c0.17-0.096,0.344-0.185,0.518-0.272c0.114-0.057,0.236-0.09,0.355-0.136
					c0.216-0.084,0.438-0.206,0.477-0.456c0.025-0.158-0.059-0.279-0.209-0.326c-0.171-0.054-0.368-0.027-0.541,0.003
					c-0.161,0.028-0.323,0.07-0.475,0.131c-0.344,0.14-0.682,0.314-0.984,0.534c0.11-0.268,0.229-0.532,0.361-0.789
					c0.245-0.26,0.521-0.489,0.837-0.676c0.19-0.112,0.389-0.211,0.593-0.294c0.139-0.057,0.276-0.109,0.424-0.134
					c0.31-0.052,0.622-0.085,0.93-0.149c0.153-0.031,0.306-0.068,0.452-0.125c0.111-0.043,0.228-0.097,0.306-0.19
					c0.136-0.16,0.09-0.43-0.09-0.535c-0.214-0.125-0.513-0.076-0.743-0.035c-0.287,0.052-0.568,0.137-0.842,0.236
					c-0.35,0.126-0.671,0.306-0.976,0.512c0.788-0.973,1.861-1.742,3.086-2.041c0.695-0.169,1.485-0.153,2.112,0.225
					c0.331,0.2,0.604,0.509,0.786,0.849c0.096,0.18,0.16,0.373,0.163,0.578c0.002,0.152-0.046,0.296-0.08,0.442
					c0.65-0.387,1.385-0.671,2.146-0.689c0.762-0.018,1.571,0.258,2.084,0.84c0.447,0.507,0.639,1.188,0.704,1.848
					c0.007,0.076,0.013,0.152,0.017,0.228c-0.018,0.381-0.075,0.759-0.166,1.13c-0.16-0.719-0.583-1.371-1.25-1.715
					c-0.308-0.159-0.641-0.287-0.982-0.353c-0.277-0.053-0.624-0.082-0.855,0.113c-0.09,0.076-0.173,0.202-0.161,0.324
					c0.012,0.122,0.117,0.205,0.219,0.257c0.263,0.135,0.564,0.161,0.846,0.233c0.155,0.04,0.309,0.131,0.449,0.221
					c0.171,0.11,0.327,0.242,0.464,0.392c0.267,0.291,0.457,0.648,0.565,1.027c0.097,0.339,0.127,0.692,0.103,1.042
					c-0.169,0.31-0.364,0.606-0.577,0.888c0.007-0.372-0.084-0.758-0.202-1.081c-0.216-0.592-0.585-1.192-1.129-1.535
					c-0.246-0.155-0.531-0.241-0.823-0.211c-0.117,0.012-0.261,0.042-0.316,0.16c-0.049,0.105,0.004,0.225,0.061,0.314
					c0.168,0.264,0.435,0.449,0.641,0.681c0.279,0.314,0.494,0.687,0.624,1.087c0.2,0.619,0.177,1.285-0.078,1.868
					c-0.102,0.085-0.205,0.167-0.311,0.247c-0.305,0.23-0.629,0.432-0.965,0.61c0.127-0.273,0.19-0.574,0.208-0.876
					c0.019-0.32,0-0.65-0.086-0.959c-0.062-0.223-0.136-0.445-0.236-0.654c-0.087-0.182-0.207-0.398-0.401-0.482
					c-0.173-0.075-0.391,0.003-0.466,0.179c-0.091,0.214-0.02,0.488,0.034,0.702c0.062,0.249,0.155,0.491,0.207,0.742
					c0.029,0.139,0.017,0.288,0.005,0.428c-0.014,0.176-0.047,0.351-0.096,0.521c-0.106,0.368-0.295,0.699-0.544,0.978
					c-0.352,0.117-0.712,0.214-1.073,0.297c0.219-0.417,0.32-0.902,0.348-1.363c0.01-0.172-0.004-0.343-0.038-0.512
					c-0.03-0.149-0.08-0.345-0.219-0.431c-0.146-0.091-0.331,0.003-0.419,0.133c-0.116,0.172-0.129,0.415-0.143,0.615
					c-0.015,0.224-0.008,0.45-0.033,0.673c-0.014,0.122-0.063,0.24-0.111,0.352c-0.059,0.138-0.13,0.272-0.211,0.399
					c-0.077,0.121-0.163,0.234-0.257,0.34c-0.384,0.058-0.771,0.099-1.157,0.136c0.035-0.058,0.07-0.116,0.102-0.174
					c0.121-0.219,0.212-0.449,0.273-0.692c0.038-0.15,0.068-0.303,0.08-0.457c0.01-0.123,0.017-0.294-0.078-0.39
					c-0.095-0.096-0.25-0.056-0.339,0.028c-0.118,0.111-0.171,0.287-0.212,0.438c-0.046,0.171-0.074,0.345-0.115,0.517
					c-0.048,0.198-0.154,0.383-0.266,0.55c-0.061,0.09-0.129,0.173-0.201,0.253c-0.302,0.029-0.604,0.062-0.905,0.102
					c0.184-0.271,0.345-0.61,0.268-0.941c-0.008-0.035-0.052-0.062-0.087-0.05c-0.42,0.149-0.606,0.619-0.866,0.945
					c-0.053,0.066-0.109,0.128-0.167,0.188c-0.886,0.184-1.842,0.507-2.466,1.181c-0.003-0.025-0.006-0.05-0.008-0.071
					c-0.022-0.267,0.006-0.538,0.029-0.805C314.333,185.875,314.338,185.745,314.341,185.616z"/>
			</g>
			<g>
				<path style="fill:#6ABBB7;" d="M337.222,184.841c-0.007-0.005-0.013-0.012-0.02-0.017c-0.238-0.183-0.54-0.379-0.675-0.657
					c-0.055-0.113-0.067-0.242,0.018-0.344c0.07-0.083,0.17-0.114,0.276-0.095c0.142,0.025,0.272,0.11,0.388,0.212
					c0-0.01,0-0.02,0-0.03c-0.007-0.318-0.02-0.635-0.035-0.952c-0.186-0.259-0.405-0.492-0.661-0.677
					c-0.222-0.162-0.449-0.316-0.663-0.489c-0.188-0.152-0.417-0.335-0.504-0.57c-0.069-0.186,0.041-0.374,0.201-0.475
					c0.157-0.099,0.343-0.068,0.502,0.007c0.207,0.098,0.383,0.263,0.539,0.426c0.184,0.192,0.349,0.402,0.506,0.617
					c-0.03-0.339-0.063-0.677-0.105-1.014c-0.137-0.256-0.298-0.5-0.496-0.727c-0.28-0.321-0.607-0.597-0.948-0.85
					c-0.149-0.111-0.299-0.225-0.457-0.324c-0.132-0.083-0.268-0.161-0.394-0.253c-0.234-0.17-0.422-0.374-0.426-0.679
					c-0.003-0.191,0.108-0.335,0.299-0.363c0.212-0.031,0.438,0.044,0.634,0.12c0.203,0.079,0.398,0.175,0.585,0.287
					c0.317,0.191,0.611,0.428,0.858,0.704c-0.065-0.315-0.134-0.629-0.212-0.941c-0.218-0.335-0.478-0.644-0.774-0.92
					c-0.343-0.319-0.725-0.586-1.133-0.816c-0.223-0.126-0.451-0.242-0.679-0.356c-0.15-0.075-0.309-0.118-0.465-0.178
					c-0.283-0.11-0.574-0.27-0.625-0.597c-0.032-0.206,0.077-0.365,0.274-0.427c0.224-0.071,0.482-0.035,0.709,0.005
					c0.211,0.037,0.423,0.091,0.622,0.172c0.45,0.183,0.893,0.412,1.29,0.7c-0.144-0.351-0.3-0.697-0.473-1.034
					c-0.32-0.34-0.683-0.641-1.096-0.885c-0.249-0.147-0.509-0.276-0.777-0.385c-0.183-0.075-0.361-0.143-0.556-0.176
					c-0.406-0.068-0.815-0.111-1.218-0.194c-0.2-0.041-0.401-0.09-0.591-0.164c-0.145-0.057-0.299-0.127-0.401-0.248
					c-0.178-0.21-0.118-0.563,0.118-0.701c0.28-0.164,0.672-0.1,0.973-0.046c0.375,0.068,0.743,0.18,1.102,0.309
					c0.459,0.165,0.879,0.401,1.279,0.671c-1.032-1.274-2.437-2.282-4.043-2.673c-0.91-0.222-1.946-0.2-2.767,0.295
					c-0.434,0.262-0.792,0.666-1.03,1.112c-0.126,0.236-0.209,0.488-0.213,0.757c-0.003,0.2,0.061,0.387,0.105,0.578
					c-0.852-0.507-1.814-0.878-2.811-0.902c-0.998-0.024-2.058,0.338-2.73,1.1c-0.585,0.664-0.837,1.556-0.922,2.42
					c-0.01,0.099-0.017,0.199-0.022,0.299c0.023,0.499,0.098,0.994,0.217,1.48c0.209-0.942,0.763-1.797,1.637-2.246
					c0.404-0.208,0.84-0.376,1.286-0.462c0.363-0.069,0.817-0.107,1.121,0.148c0.118,0.099,0.227,0.264,0.211,0.425
					c-0.016,0.16-0.153,0.268-0.287,0.337c-0.344,0.177-0.739,0.21-1.109,0.305c-0.203,0.052-0.404,0.172-0.588,0.29
					c-0.224,0.144-0.428,0.318-0.608,0.514c-0.35,0.381-0.598,0.848-0.74,1.345c-0.127,0.444-0.167,0.907-0.135,1.365
					c0.221,0.406,0.477,0.794,0.756,1.164c-0.01-0.488,0.11-0.993,0.264-1.416c0.283-0.776,0.766-1.562,1.479-2.01
					c0.322-0.202,0.696-0.316,1.078-0.276c0.153,0.016,0.342,0.055,0.414,0.209c0.065,0.137-0.005,0.294-0.08,0.412
					c-0.22,0.346-0.57,0.589-0.84,0.893c-0.365,0.412-0.648,0.9-0.817,1.424c-0.262,0.812-0.232,1.683,0.102,2.447
					c0.133,0.111,0.269,0.219,0.407,0.324c0.4,0.302,0.824,0.566,1.264,0.799c-0.167-0.357-0.249-0.752-0.273-1.147
					c-0.025-0.419,0-0.851,0.113-1.256c0.081-0.292,0.178-0.583,0.309-0.857c0.113-0.238,0.271-0.522,0.525-0.632
					c0.227-0.098,0.512,0.005,0.611,0.235c0.12,0.28,0.026,0.639-0.044,0.919c-0.081,0.326-0.204,0.643-0.271,0.972
					c-0.037,0.181-0.022,0.378-0.007,0.561c0.019,0.231,0.061,0.46,0.125,0.683c0.139,0.482,0.387,0.915,0.713,1.281
					c0.462,0.153,0.932,0.28,1.405,0.389c-0.287-0.546-0.419-1.181-0.455-1.785c-0.014-0.225,0.005-0.45,0.049-0.671
					c0.039-0.196,0.105-0.452,0.287-0.565c0.191-0.119,0.434,0.004,0.549,0.174c0.152,0.226,0.169,0.543,0.187,0.806
					c0.02,0.293,0.01,0.59,0.043,0.882c0.018,0.16,0.083,0.314,0.146,0.462c0.077,0.181,0.171,0.356,0.277,0.522
					c0.101,0.158,0.214,0.306,0.337,0.446c0.503,0.077,1.009,0.13,1.516,0.179c-0.046-0.076-0.091-0.151-0.134-0.229
					c-0.159-0.287-0.278-0.588-0.358-0.907c-0.049-0.196-0.09-0.397-0.105-0.599c-0.013-0.162-0.022-0.385,0.102-0.511
					c0.125-0.126,0.327-0.073,0.444,0.036c0.155,0.145,0.224,0.376,0.278,0.574c0.061,0.223,0.096,0.452,0.151,0.677
					c0.063,0.259,0.201,0.502,0.349,0.721c0.079,0.117,0.168,0.227,0.263,0.331c0.396,0.038,0.792,0.081,1.186,0.133
					c-0.241-0.355-0.452-0.799-0.352-1.233c0.011-0.046,0.068-0.081,0.115-0.065c0.551,0.196,0.794,0.811,1.135,1.238
					c0.069,0.087,0.143,0.168,0.219,0.246c1.16,0.241,2.413,0.664,3.23,1.547c0.004-0.033,0.008-0.065,0.01-0.093
					c0.028-0.35-0.008-0.705-0.038-1.054C337.233,185.181,337.227,185.011,337.222,184.841z"/>
			</g>
			<g>
				<path style="fill:#49A199;" d="M318.691,178.235c0.005-0.005,0.008-0.011,0.013-0.015c0.158-0.166,0.361-0.35,0.431-0.576
					c0.028-0.092,0.021-0.191-0.055-0.257c-0.062-0.054-0.142-0.066-0.219-0.039c-0.104,0.036-0.192,0.116-0.267,0.206
					c-0.001-0.007-0.002-0.015-0.003-0.022c-0.033-0.241-0.061-0.481-0.087-0.722c0.109-0.218,0.247-0.419,0.417-0.59
					c0.148-0.148,0.301-0.292,0.441-0.448c0.123-0.137,0.274-0.302,0.312-0.49c0.03-0.148-0.076-0.277-0.208-0.334
					c-0.13-0.056-0.267-0.01-0.377,0.065c-0.144,0.098-0.257,0.244-0.356,0.385c-0.116,0.167-0.215,0.345-0.308,0.525
					c-0.018-0.259-0.033-0.518-0.042-0.777c0.073-0.209,0.165-0.413,0.287-0.608c0.173-0.276,0.386-0.522,0.613-0.754
					c0.099-0.102,0.199-0.205,0.306-0.299c0.09-0.079,0.183-0.154,0.267-0.238c0.156-0.156,0.273-0.333,0.24-0.563
					c-0.021-0.144-0.122-0.239-0.269-0.238c-0.164,0.002-0.325,0.086-0.463,0.166c-0.144,0.083-0.28,0.18-0.406,0.286
					c-0.216,0.182-0.409,0.395-0.563,0.633c0.012-0.245,0.026-0.49,0.048-0.735c0.124-0.278,0.283-0.543,0.473-0.786
					c0.221-0.282,0.477-0.528,0.757-0.75c0.153-0.121,0.311-0.236,0.469-0.35c0.104-0.074,0.219-0.126,0.329-0.19
					c0.2-0.117,0.401-0.272,0.4-0.525c0-0.159-0.102-0.266-0.257-0.29c-0.178-0.027-0.368,0.031-0.534,0.088
					c-0.155,0.053-0.309,0.119-0.449,0.204c-0.318,0.192-0.624,0.417-0.889,0.682c0.067-0.282,0.143-0.561,0.233-0.836
					c0.201-0.295,0.438-0.565,0.721-0.798c0.17-0.141,0.351-0.269,0.54-0.383c0.129-0.078,0.255-0.151,0.398-0.199
					c0.298-0.1,0.601-0.181,0.895-0.292c0.146-0.055,0.292-0.115,0.426-0.195c0.102-0.06,0.21-0.132,0.273-0.235
					c0.109-0.18,0.022-0.439-0.173-0.514c-0.231-0.09-0.519,0.005-0.739,0.082c-0.275,0.096-0.539,0.225-0.794,0.364
					c-0.327,0.179-0.615,0.407-0.884,0.659c0.626-1.084,1.565-2.011,2.729-2.498c0.66-0.276,1.443-0.383,2.121-0.108
					c0.358,0.145,0.677,0.408,0.909,0.715c0.123,0.163,0.216,0.343,0.251,0.545c0.026,0.15,0,0.299-0.01,0.449
					c0.582-0.484,1.263-0.879,2.012-1.016c0.75-0.137,1.592,0.009,2.19,0.504c0.521,0.431,0.817,1.073,0.984,1.715
					c0.019,0.074,0.036,0.148,0.053,0.223c0.042,0.379,0.045,0.761,0.013,1.142c-0.27-0.686-0.79-1.263-1.503-1.498
					c-0.329-0.108-0.678-0.183-1.025-0.195c-0.282-0.009-0.629,0.017-0.827,0.245c-0.077,0.089-0.14,0.226-0.109,0.345
					c0.031,0.119,0.148,0.184,0.257,0.22c0.281,0.092,0.582,0.07,0.872,0.098c0.16,0.015,0.325,0.081,0.478,0.148
					c0.186,0.082,0.36,0.188,0.52,0.315c0.309,0.246,0.552,0.568,0.719,0.926c0.149,0.32,0.234,0.664,0.265,1.013
					c-0.118,0.333-0.265,0.655-0.431,0.968c-0.051-0.369-0.202-0.736-0.368-1.036c-0.306-0.551-0.764-1.086-1.355-1.339
					c-0.267-0.114-0.562-0.155-0.846-0.08c-0.114,0.03-0.251,0.083-0.288,0.207c-0.033,0.111,0.039,0.221,0.109,0.301
					c0.207,0.235,0.5,0.376,0.74,0.573c0.325,0.267,0.596,0.601,0.786,0.976c0.294,0.581,0.376,1.241,0.215,1.857
					c-0.087,0.1-0.177,0.198-0.268,0.293c-0.266,0.275-0.553,0.526-0.858,0.754c0.083-0.289,0.098-0.597,0.069-0.897
					c-0.031-0.319-0.102-0.641-0.235-0.934c-0.096-0.211-0.204-0.418-0.335-0.609c-0.114-0.166-0.266-0.361-0.471-0.414
					c-0.183-0.047-0.386,0.064-0.433,0.25c-0.057,0.225,0.056,0.485,0.143,0.688c0.1,0.236,0.23,0.461,0.321,0.701
					c0.05,0.132,0.062,0.282,0.072,0.422c0.014,0.176,0.009,0.354-0.013,0.53c-0.047,0.38-0.182,0.736-0.385,1.051
					c-0.33,0.171-0.669,0.322-1.013,0.461c0.151-0.446,0.175-0.941,0.13-1.4c-0.017-0.171-0.058-0.339-0.117-0.5
					c-0.053-0.143-0.133-0.328-0.284-0.392c-0.158-0.067-0.327,0.055-0.393,0.197c-0.088,0.188-0.063,0.43-0.045,0.63
					c0.02,0.223,0.063,0.446,0.073,0.67c0.005,0.123-0.025,0.247-0.055,0.366c-0.037,0.146-0.086,0.289-0.146,0.427
					c-0.057,0.131-0.125,0.257-0.201,0.377c-0.37,0.118-0.745,0.218-1.122,0.316c0.025-0.062,0.051-0.125,0.074-0.188
					c0.086-0.236,0.139-0.477,0.162-0.726c0.014-0.154,0.02-0.31,0.008-0.464c-0.01-0.123-0.029-0.293-0.138-0.373
					c-0.109-0.08-0.256-0.016-0.33,0.08c-0.1,0.128-0.124,0.31-0.141,0.466c-0.019,0.176-0.019,0.353-0.033,0.529
					c-0.016,0.202-0.092,0.402-0.177,0.585c-0.046,0.098-0.1,0.191-0.159,0.281c-0.294,0.076-0.587,0.155-0.878,0.242
					c0.14-0.296,0.246-0.656,0.118-0.971c-0.014-0.034-0.061-0.053-0.094-0.035c-0.392,0.213-0.502,0.706-0.708,1.069
					c-0.042,0.074-0.088,0.144-0.136,0.212c-0.846,0.32-1.74,0.789-2.251,1.552c-0.007-0.024-0.014-0.048-0.019-0.069
					c-0.063-0.26-0.078-0.533-0.097-0.799C318.723,178.492,318.708,178.363,318.691,178.235z"/>
			</g>
		</g>
	</g>
	<g>
		<g>
			<rect x="72.372" y="226.807" style="fill:#553C2A;" width="5.576" height="13.978"/>
			<rect x="301.098" y="226.807" style="fill:#553C2A;" width="5.576" height="13.978"/>
			<path style="fill:#9A5B35;" d="M281.547,150.285c-2.67,0-182.966,0-185.636,0c-5.337,0-5.6,5.6-5.6,5.6v13.183l4.757,13.666
				l8.16,29.534h55.92h59.163h55.92l8.16-29.534l4.757-13.666v-13.183C287.148,155.885,286.885,150.285,281.547,150.285z"/>
			<path style="fill:#B1693F;" d="M287.001,154.913c-0.35-1.602-1.527-4.628-5.453-4.628H95.911c-3.927,0-5.104,3.026-5.453,4.628
				H287.001z"/>
			<g>
				<path style="fill:#7E4A28;" d="M106.023,208.212c0,0,0.023-27.915-0.671-36.515c-0.694-8.6-14.568-8.988-14.568-8.988
					s-5.392-0.568-7.744,0c-0.493,0.119-0.896,0.415-1.232,0.799l-18.313,11.883l19.259,54.818l7.355-12.263h11.347L106.023,208.212
					z"/>
				<path style="fill:#B1693F;" d="M82.966,212.608l4.397,17.601H68.44v-35.27c0,0,0.392-5.096-4.103-6.17
					c0,0-2.347,0.134-2.749-2.551c-0.403-2.685,0-6.219,0-6.219s0.397-4.459,2.749-5.027c2.352-0.568,7.744,0,7.744,0
					s9.979-0.853,10.673,7.747C83.448,191.319,82.966,212.608,82.966,212.608z"/>
			</g>
			<g>
				<path style="fill:#7E4A28;" d="M272.742,208.212c0,0-0.023-27.915,0.671-36.515c0.694-8.6,14.568-8.988,14.568-8.988
					s9.137-0.568,11.489,0c0.493,0.119,15.799,12.682,15.799,12.682l-19.259,54.818l-7.355-12.263h-11.347L272.742,208.212z"/>
				<path style="fill:#B1693F;" d="M295.8,212.608l-4.397,17.601h18.923v-35.27c0,0-0.392-5.096,4.103-6.17
					c0,0,2.347,0.134,2.749-2.551c0.403-2.685,0-6.219,0-6.219s-0.397-4.459-2.749-5.027c-2.352-0.568-7.744,0-7.744,0
					s-9.979-0.853-10.673,7.747C295.317,191.319,295.8,212.608,295.8,212.608z"/>
			</g>
			<path style="fill:#B1693F;" d="M296.358,226.393l0.004-14.482l-213.396,0.696v13.785c0,0-0.256,3.64,3.279,3.815h90.836h25.163
				h90.836C296.614,230.033,296.358,226.393,296.358,226.393z"/>
			<path style="fill:#D8804E;" d="M294.868,211.876c0,0-17.319-9.294-19.939-10.382c-2.62-1.087-9.295-0.748-9.295-0.748h-75.903
				h-0.27h-75.903c0,0-6.674-0.339-9.295,0.748c-2.62,1.087-19.939,10.382-19.939,10.382s-4.612,2.145,2.369,2.376h65.441h74.922
				h65.441C299.48,214.022,294.868,211.876,294.868,211.876z"/>
			<g>
				<g>
					<path style="fill:#9A5B35;" d="M150.544,166.511c1.226-1.706,2.849-4.473,1.33-5.464c-1.478-0.964-3.958,0.047-5.501,0.862
						h-30.611c-1.543-0.815-4.023-1.826-5.501-0.862c-1.511,0.985,0.085,3.725,1.308,5.434v29.596
						c-1.222,1.706-2.818,4.446-1.309,5.431c1.334,0.87,3.486,0.128,5.026-0.624h31.512c1.54,0.752,3.692,1.494,5.026,0.624
						c1.498-0.977-0.063-3.684-1.281-5.393V166.511z"/>
					<path style="fill:#3A527E;" d="M149.034,166.511c1.226-1.706,2.849-4.473,1.33-5.464c-1.478-0.964-3.958,0.047-5.501,0.862
						h-30.611c-1.543-0.815-4.023-1.826-5.501-0.862c-1.511,0.985,0.085,3.725,1.308,5.434v29.596
						c-1.222,1.706-2.818,4.446-1.309,5.431c1.334,0.87,3.486,0.128,5.026-0.624h31.512c1.54,0.752,3.692,1.494,5.026,0.624
						c1.498-0.977-0.063-3.684-1.281-5.393V166.511z"/>
				</g>
				<g>
					<path style="fill:#9A5B35;" d="M267.732,166.511c1.226-1.706,2.849-4.473,1.33-5.464c-1.478-0.964-3.958,0.047-5.501,0.862
						H232.95c-1.543-0.815-4.023-1.826-5.501-0.862c-1.511,0.985,0.085,3.725,1.308,5.434v29.596
						c-1.222,1.706-2.818,4.446-1.308,5.431c1.334,0.87,3.486,0.128,5.026-0.624h31.512c1.54,0.752,3.692,1.494,5.026,0.624
						c1.498-0.977-0.063-3.684-1.281-5.393V166.511z"/>
					<path style="fill:#3A527E;" d="M266.222,166.511c1.226-1.706,2.849-4.473,1.33-5.464c-1.478-0.964-3.958,0.047-5.501,0.862
						H231.44c-1.543-0.815-4.023-1.826-5.501-0.862c-1.511,0.985,0.085,3.725,1.308,5.434v29.596
						c-1.222,1.706-2.818,4.446-1.309,5.431c1.334,0.87,3.486,0.128,5.026-0.624h31.512c1.54,0.752,3.692,1.494,5.026,0.624
						c1.498-0.977-0.063-3.684-1.281-5.393V166.511z"/>
				</g>
				<g>
					<path style="fill:#9A5B35;" d="M209.138,166.511c1.226-1.706,2.849-4.473,1.33-5.464c-1.478-0.964-3.958,0.047-5.501,0.862
						h-30.611c-1.543-0.815-4.023-1.826-5.501-0.862c-1.511,0.985,0.085,3.725,1.308,5.434v29.596
						c-1.222,1.706-2.818,4.446-1.308,5.431c1.334,0.87,3.486,0.128,5.026-0.624h31.512c1.54,0.752,3.692,1.494,5.026,0.624
						c1.498-0.977-0.063-3.684-1.281-5.393V166.511z"/>
					<path style="fill:#49A199;" d="M207.628,166.511c1.226-1.706,2.849-4.473,1.33-5.464c-1.478-0.964-3.958,0.047-5.501,0.862
						h-30.611c-1.543-0.815-4.023-1.826-5.501-0.862c-1.511,0.985,0.085,3.725,1.308,5.434v29.596
						c-1.222,1.706-2.818,4.446-1.309,5.431c1.334,0.87,3.486,0.128,5.026-0.624h31.512c1.54,0.752,3.692,1.494,5.026,0.624
						c1.498-0.977-0.063-3.684-1.281-5.393V166.511z"/>
				</g>
			</g>
		</g>
		<g>
			<g>
				<path style="fill:#EFCAAC;" d="M158.125,198.739c-0.142,15.007,1.711,41.1,2.339,44.899l3.263,0.154
					c0,0,3.883-25.235,5.103-43.401L158.125,198.739z"/>
				<g>
					<path style="fill:#EFCAAC;" d="M164.482,244.371c-0.395-0.627-0.77-1.119-0.734-1.897c0.018-0.39-0.122-0.622-0.525-0.462
						c-0.285,0.113-0.553,0.272-0.819,0.424c-0.332,0.19-1.493-0.306-1.804,0.077c-0.452,0.558-1.138,2.455-1.512,3.067
						c-0.415,0.679-0.885,1.326-1.391,1.941c-0.84,1.02-1.971,2.303-3.015,3.109c-0.415,0.321-0.645,0.554-0.946,0.983
						c-0.301,0.429-0.484,0.686-0.389,1.201c0.332,1.804,3.228,1.011,4.342,0.635c1.442-0.487,2.713-1.375,3.764-2.466
						c0.518-0.538,0.984-1.125,1.403-1.743c0.394-0.581,0.673-1.365,1.284-1.752c0.226-0.143,0.489-0.242,0.661-0.446
						c0.563-0.667,0.153-1.86-0.228-2.517C164.544,244.473,164.513,244.422,164.482,244.371z"/>
					<path style="fill:#DCC37E;" d="M150.206,253.932c-0.324,0.242-0.652,0.479-0.986,0.709c-0.62,0.427-1.157,1.082-0.946,1.886
						c0.23,0.877,1.67,0.783,2.369,0.791c0.982,0.011,1.965-0.125,2.91-0.392c1.194-0.337,3.18-0.956,4.181-1.69
						c1.019-0.747,1.324-1.495,2.396-2.167c0.929-0.582,1.507-1.226,2.482-1.719c0.79-0.4,1.697-0.807,2.167-1.586
						c0.26-0.431,0.573-0.819,0.624-1.329c0.043-0.432-0.014-0.88-0.079-1.306c-0.028-0.18-0.452-2.351-0.624-2.317
						c-0.362,0.272-0.709,0.563-1.035,0.881c-0.572,0.559-1.042,1.2-1.572,1.796c-1.034,1.162-2.294,2.105-3.629,2.88
						c-0.888,0.516-1.832,1.057-2.839,1.285c-0.41,0.093-0.892,0.137-1.266-0.103c-0.311-0.199,0.304-0.575,0.323-0.924
						c-0.67,0.561-1.433,1.034-2.141,1.546C151.749,252.747,150.987,253.351,150.206,253.932z"/>
				</g>
			</g>
			<path style="fill:#492717;" d="M176.639,137.589c-0.188,0.951-0.771,1.706-1.287,2.5c-0.48,0.738-0.696,1.492-0.697,2.373
				c0,0.559,0.007,1.279,0.29,1.806c0.127-0.085,0.256-0.168,0.387-0.246c-0.022-0.276,0.053-0.574,0.123-0.826
				c0.11-0.398,0.258-0.798,0.427-1.173c0.145-0.322,0.337-0.597,0.555-0.85c-0.187,0.719-0.1,1.566,0.032,2.308
				c0.895-0.333,1.848-0.484,2.816-0.437c1.424,0.07,2.809,0.509,4.136,1.005c0.786,0.294,1.564,0.556,2.402,0.653
				c0.712,0.082,1.427,0.056,2.133-0.061c1.527-0.254,2.914-0.913,4.375-1.386c1.589-0.514,3.243-0.471,4.883-0.283
				c1.664,0.191,3.34,0.506,5.008,0.192c0.674-0.127,1.331-0.328,1.973-0.572c-0.538-0.593-1.064-1.223-1.3-1.994
				c-0.158-0.515-0.15-1.028-0.092-1.542c0.209,0.416,0.504,0.801,0.833,1.17c0.548,0.613,1.158,1.245,1.353,2.04
				c0.617-0.272,1.22-0.577,1.808-0.895c0.218-0.118,0.433-0.24,0.648-0.363c-0.056-0.115-0.111-0.23-0.158-0.344
				c-0.116-0.279-0.198-0.573-0.266-0.872c0.238,0.349,0.495,0.689,0.723,1.043c0.607-0.354,1.208-0.716,1.823-1.053
				c-0.023-0.033-0.044-0.066-0.067-0.098c-0.425-0.6-0.886-1.224-1.028-1.962c-0.176-0.917,0.264-1.734,0.529-2.585
				c-0.012,0.404-0.111,0.795-0.155,1.217c-0.057,0.55,0.076,1.088,0.337,1.573c0.205,0.38,0.499,0.695,0.73,1.058
				c0.098,0.154,0.193,0.31,0.289,0.466c0.314-0.157,0.632-0.307,0.959-0.44c0.656-0.266,1.31-0.457,2.014-0.537
				c0.655-0.075,1.316-0.094,1.974-0.122c0.056-0.002,0.114-0.005,0.171-0.007c-0.042-0.276-0.028-0.57-0.025-0.828
				c0.005-0.502-0.05-0.959-0.224-1.433c-0.375-1.023-1.112-1.839-1.732-2.717c-0.713-1.01-1.098-2.107-1.293-3.323
				c-0.189-1.175-0.234-2.383-0.68-3.5c-0.425-1.066-1.135-1.974-1.851-2.857c-0.802-0.989-1.62-1.979-2.249-3.09
				c-0.639-1.13-0.873-2.377-1.167-3.627c-0.25-1.061-0.586-2.101-1.09-3.07c-1.056-2.029-2.757-3.475-4.628-4.73
				c-0.068-0.046-0.209,0.064-0.132,0.118c1.516,1.062,2.927,2.336,3.911,3.914c-1.4-1.167-3.164-1.668-5.014-1.74
				c-1.129-0.044-2.259,0.039-3.382,0.154c-1.14,0.117-2.285,0.23-3.416,0.413c-2.437,0.394-4.821,1.081-7.17,1.828
				c-2.145,0.682-4.283,1.486-6.208,2.668c-0.876,0.538-1.968,1.172-2.152,2.279c-0.044,0.267-0.035,0.539,0.005,0.811
				c-0.002,0.007-0.008,0.014-0.008,0.022c0.099,0.986,0.633,1.846,0.786,2.819c0.169,1.08,0.113,2.092-0.337,3.102
				c-0.681,1.531-1.895,2.794-2.374,4.42c-0.232,0.786-0.211,1.601,0.056,2.375c0.295,0.853,0.798,1.601,1.198,2.405
				C176.583,135.638,176.834,136.604,176.639,137.589z"/>
			<path style="fill:#F6DFC9;" d="M188.722,145.724c0,0-4.376,0.233-6.848,4.995c-2.472,4.763-13.634,29.618-13.634,29.618
				l4.731,3.884l9.197-11.896L188.722,145.724z"/>
			<path style="fill:#F6DFC9;" d="M161.782,200.097c2.857,14.734,8.463,40.368,9.837,43.966l3.325-1.973
				c0,0,0.089-24.467-2.343-42.511L161.782,200.097z"/>
			<path style="fill:#8A3526;" d="M206.131,183.147l-22.626,0.416l-0.318,4.413c0,0-21.319,3.466-25.07,5.534
				c-2.842,1.567-6.681,10.243-9.635,17.25c1.171,0.144,2.329,0.445,3.452,0.879c2.224,0.859,4.279,2.085,6.359,3.237
				c2.161,1.196,4.36,2.281,6.776,2.856c2.212,0.526,9.54-0.499,11.781-0.699c1.326-7.722,1.326-7.722,1.326-7.722
				s24.524-0.787,28.684-7.443C211.019,195.211,206.131,183.147,206.131,183.147z"/>
			<path style="fill:#8A3526;" d="M186.285,190.954c4.145,1.106,8.55,1.185,12.762,0.448c2.382-0.416,4.746-1.052,6.976-1.995
				c0.589-0.249,1.171-0.524,1.741-0.824c-0.704-3.14-1.633-5.436-1.633-5.436l-22.626,0.416l-0.318,4.413
				c0,0-0.604,0.319-1.637,0.866C182.932,189.884,184.64,190.515,186.285,190.954z"/>
			<g>
				<path style="fill:#B7B780;" d="M186.031,189.15c1.942,0.553,3.965,0.764,5.977,0.856c2.113,0.097,4.238,0.077,6.345-0.105
					c3.173-0.275,6.41-0.976,9.22-2.487c-0.535-4.723-1.519-6.657-1.738-10.937c-0.34-6.618,0.85-27.19-0.217-29.915
					c-0.002-0.003-0.003-0.004-0.005-0.007c-0.738-0.548-1.491-1.075-2.29-1.536c-1.137-0.655-2.353-1.163-3.662-1.326
					c-1.621-0.201-3.278-0.097-4.889,0.074c-1.132,0.12-2.252,0.314-3.37,0.528c-0.572,0.11-1.173,0.196-1.721,0.394
					c-0.55,0.198-1.046,0.525-1.473,0.92c-0.868,0.801-1.478,1.836-2.066,2.847c-0.699,1.2-1.456,2.358-2.213,3.521
					c-1.082,1.661-2.151,3.339-3.111,5.074c-0.486,1.5-0.901,3.026-1.192,4.454c-0.395,1.936,2.708,18.213,3.565,26.47
					C184.077,188.479,185.037,188.867,186.031,189.15z"/>
				<g>
					<g>
						<g>
							<path style="fill:#EFCAAC;" d="M190.148,146.044c-0.72,1.298-2.505,3.058-0.514,4.277c1.352,0.828,3.501,0.179,4.91-0.285
								c1.724-0.568,3.333-1.49,4.685-2.703c0.384-0.344,0.757-0.725,0.951-1.202c0.469-1.15-0.695-1.895-0.748-2.985
								c-0.159-3.253-0.428-6.668-0.073-9.944c0.038-0.352,0.067-0.74,0.213-1.067c-0.054-0.097-0.13-0.185-0.257-0.248
								c-0.402-0.201-0.939-0.143-1.363-0.058c-0.499,0.1-0.98,0.271-1.471,0.404c-1.171,0.316-2.334,0.73-3.418,1.277
								c-1.059,0.535-1.965,1.266-2.9,1.985c-0.31,0.238-0.654,0.437-0.928,0.722c-0.101,0.105-0.227,0.244-0.234,0.398
								c-0.009,0.209,0.221,0.343,0.326,0.497c0.696,1.026,0.934,2.578,1.105,3.822c0.191,1.385,0.334,2.802,0.06,4.186
								C190.423,145.471,190.3,145.77,190.148,146.044z"/>
						</g>
					</g>
					<g>
						<g>
							<g>
								<path style="fill:#F6DFC9;" d="M200.349,114.623c-1.877-2.745-4.698-4.866-7.936-5.704c-3.055-0.79-6.435-0.401-9.171,1.205
									c-2.554,1.499-4.239,4.068-4.975,6.902c-0.087,0.333-0.159,0.669-0.223,1.007c-0.118,0.351-0.22,0.709-0.289,1.082
									c-0.345,1.87,0.202,3.739,0.721,5.522c0.283,0.974,0.549,1.959,0.642,2.972c0.094,1.027,0.025,2.049-0.04,3.075
									c-0.119,1.873-0.183,3.683,0.664,5.413c1.317,2.688,3.771,5.013,6.695,5.807c2.96,0.804,6.127-0.079,8.782-1.454
									c2.83-1.466,5.288-3.714,6.846-6.51c1.657-2.975,1.872-6.327,1.509-9.657C203.205,120.892,202.294,117.469,200.349,114.623z
									"/>
								<path style="fill:#492717;" d="M182.315,126.878c-0.118-0.261-0.273-0.516-0.456-0.744c-0.452-0.391-1.007-0.667-1.571-0.76
									c-0.038-0.006-0.074-0.003-0.112-0.007c-0.614,0.097-0.895,0.649-1.073,1.222c0.034-0.049,0.066-0.099,0.104-0.142
									c0.127-0.146,0.2-0.214,0.354-0.25c0.193-0.046,0.404-0.015,0.594,0.036c0.933,0.251,1.778,0.904,2.368,1.657
									c0.04,0.051,0.097,0.047,0.15,0.016C182.576,127.555,182.465,127.208,182.315,126.878z"/>
								<path style="fill:#492717;" d="M193.939,125.515c-1.108-1.044-2.652-1.375-4.089-0.861
									c-1.247,0.446-2.132,1.496-2.553,2.719c0.04-0.023,0.075-0.053,0.095-0.085c0.626-1.05,1.987-1.841,3.181-2.01
									c0.736-0.104,1.514,0.074,2.2,0.333c0.375,0.142,0.749,0.282,1.1,0.48c0.347,0.195,0.66,0.454,0.985,0.682
									c0.002,0.001,0.003,0.001,0.005,0.002C194.639,126.304,194.324,125.877,193.939,125.515z"/>
								<path style="fill:#492717;" d="M205.617,114.206c-1.992-3.384-4.874-6.027-8.677-7.166
									c-3.482-1.043-7.274-0.885-10.698,0.302c-3.104,1.076-6.411,3.08-8.205,5.973c-0.242,0.29-0.467,0.597-0.68,0.918
									c-0.603,0.718-1.101,1.523-1.474,2.356c-0.914,2.043-1.14,4.353-0.811,6.556c0.088,0.586,0.226,1.166,0.4,1.733
									c0.085,0.277,0.146,0.651,0.281,0.954c1.558-0.391,3.116-0.788,4.678-1.162c0.179-0.049,0.36-0.091,0.54-0.135
									c-0.309-1.432,0.157-4.641,0.178-4.378c0.112,1.41,0.464,2.787,0.896,4.133c0.093-0.019,0.185-0.041,0.279-0.06
									c2.503-0.557,5.046-1.012,7.603-1.231c-0.411-1.257-0.712-2.548-0.987-3.841c-0.046-0.218,1.52,2.421,1.923,3.769
									c1.025-0.063,2.052-0.088,3.079-0.06c-0.671-1.899-0.906-2.819-1.605-4.709c-0.089-0.24,2.083,2.673,2.758,4.76
									c0.285,0.019,0.57,0.041,0.854,0.069c0.919,0.088,1.951,0.102,2.684,0.736c0.593,0.513,0.892,1.283,1.167,1.996
									c0.049,0.127,0.098,0.253,0.147,0.38c0.666,1.279,1.101,2.671,1.378,4.114c0.064,0.334,0.524,0.026,0.497-0.229
									c-0.016-0.147-0.052-0.287-0.072-0.433c-0.046-0.633-0.103-1.269-0.179-1.901c0.248-0.321,0.419-0.817,0.512-1.076
									c0.227-0.629,0.365-1.289,0.503-1.942c0.061-0.289,0.485-0.109,0.625,0.224c0.419,0.996,0.545,1.913,0.471,3
									c-0.077,1.132-0.268,2.279-0.526,3.383c-0.143,0.613-1.227,3.192-1.755,3.657c-0.053,0.046-0.136,0.202,0.005,0.232
									c1.095,0.232,3.868-1.643,4.429-2.378c1.181-1.547,1.942-2.94,2.372-4.832C209.179,123.645,207.819,117.948,205.617,114.206
									z"/>
								<path style="fill:#F6DFC9;" d="M205.632,125.061c-0.239-0.734-0.866-1.505-1.72-1.436c-1.047,0.085-1.632,1.258-1.888,2.15
									c-0.064,0.222-0.147,0.51-0.206,0.811c-0.147,0.359-0.271,0.73-0.349,1.12c-0.171,0.852-0.147,1.763-0.128,2.63
									c0.015,0.668,0.026,1.66,0.778,1.932c0.687,0.248,1.366-0.227,1.841-0.68c1.111-1.058,1.579-2.49,1.787-3.979
									C205.864,126.771,205.898,125.875,205.632,125.061z"/>
								<path style="fill:#F6DFC9;" d="M205.068,125.814c-0.221-0.344-0.587-0.364-0.922-0.166
									c-0.447,0.265-0.718,0.753-0.913,1.219c-0.207,0.497-0.338,1.028-0.434,1.557c-0.141,0.779-0.142,1.641,0.035,2.414
									c0.034,0.147,0.226,0.009,0.217-0.1c-0.04-0.483-0.075-0.958-0.068-1.434c0.058-0.009,0.117-0.026,0.167-0.046
									c0.089-0.035,0.173-0.084,0.252-0.137c0.169-0.113,0.318-0.257,0.452-0.409c0.257-0.292,0.446-0.628,0.674-0.941
									c0.052-0.071-0.048-0.125-0.097-0.06c-0.213,0.281-0.427,0.567-0.666,0.826c-0.12,0.13-0.249,0.252-0.396,0.35
									c-0.07,0.047-0.144,0.086-0.223,0.117c-0.053,0.02-0.106,0.035-0.158,0.053c0.012-0.22,0.033-0.44,0.075-0.662
									c0.107-0.572,0.258-1.155,0.515-1.68c0.171-0.35,0.607-1.101,1.104-0.889c0.382,0.163,0.494,0.749,0.477,1.113
									c-0.003,0.058,0.07,0.023,0.077-0.016C205.3,126.561,205.27,126.129,205.068,125.814z"/>
							</g>
						</g>
						<path style="fill:#F6DFC9;" d="M184.379,133.993c-0.201-0.137-0.443-0.199-0.656-0.316c-0.244-0.134-0.451-0.325-0.685-0.47
							c0.048-0.098,0.188-0.218,0.24-0.283c0.073-0.092,0.143-0.187,0.205-0.287c0.146-0.234,0.259-0.495,0.335-0.761
							c0.146-0.511,0.179-1.058-0.032-1.555c-0.033-0.079-0.173-0.008-0.148,0.065c0.16,0.481,0.133,1.005-0.011,1.487
							c-0.075,0.249-0.178,0.49-0.304,0.717c-0.068,0.124-0.267,0.545-0.424,0.553c-0.101,0.005-0.26,0.104-0.22,0.227
							c0.165,0.51,0.783,0.738,1.223,0.943c0.159,0.074,0.316,0.143,0.445,0.266c0.161,0.154,0.25,0.361,0.39,0.53
							c0.087,0.106,0.275-0.024,0.253-0.143C184.92,134.585,184.7,134.212,184.379,133.993z"/>
						<g>
							<path style="fill:#492717;" d="M192.007,128.507c0,0.789-0.336,1.428-0.751,1.428c-0.415,0-0.751-0.639-0.751-1.428
								c0-0.789,0.336-1.428,0.751-1.428C191.671,127.078,192.007,127.718,192.007,128.507z"/>
							<ellipse style="fill:#FFFFFF;" cx="191.639" cy="127.947" rx="0.147" ry="0.28"/>
						</g>
						<g>
							<path style="fill:#492717;" d="M182.39,129.346c0,0.789-0.336,1.428-0.751,1.428c-0.415,0-0.751-0.64-0.751-1.428
								c0-0.789,0.336-1.428,0.751-1.428C182.054,127.918,182.39,128.557,182.39,129.346z"/>
							<ellipse style="fill:#FFFFFF;" cx="182.022" cy="128.787" rx="0.147" ry="0.28"/>
						</g>
						<path style="fill:#FFFFFF;" d="M184.605,138.879c0.635,0.324,1.481,0.49,2.406,0.37c0.847-0.109,1.645-0.421,2.185-0.893
							c0.718-0.628,0.963-1.409,0.884-2.113c-1.085,0.272-2.17,0.541-3.264,0.785c-0.925,0.206-1.849,0.414-2.773,0.62
							c-0.228,0.051-0.456,0.096-0.685,0.143C183.647,138.213,184.049,138.596,184.605,138.879z"/>
					</g>
				</g>
			</g>
			<g>
				<path style="fill:#F6DFC9;" d="M191.678,182.163c-0.216-0.472-0.482-0.924-0.842-1.302c-0.348-0.365-0.777-0.64-1.236-0.843
					c-0.618-0.275-1.272-0.482-1.906-0.718c-0.649-0.242-1.3-0.48-1.955-0.706c-0.568-0.196-1.147-0.423-1.736-0.551
					c-0.225-0.049-0.454-0.071-0.68-0.022c-0.542-0.012-1.086,0.004-1.626,0.027c-0.714,0.031-1.428,0.08-2.137,0.168
					c-0.588,0.073-1.177,0.167-1.742,0.353c-0.563,0.185-1.043,0.473-1.503,0.842c-0.369,0.296-0.797,0.516-1.132,0.854
					c-0.127,0.128-0.259,0.293-0.254,0.484c0.004,0.169,0.131,0.285,0.278,0.35c0.165,0.073,0.354,0.106,0.545,0.114
					c0.928-0.084,1.786-0.562,2.641-0.892c0.279-0.108,0.579-0.166,0.872-0.218c0.439-0.079,0.884-0.119,1.329-0.129
					c0.303-0.007,0.605,0.001,0.908,0.019c-0.093,0.024-0.185,0.049-0.276,0.076c-0.447,0.137-0.852,0.37-1.277,0.557
					c-0.418,0.184-0.821,0.357-1.19,0.632c-0.003,0.003-0.006,0.005-0.009,0.008c-0.275,0.135-0.54,0.291-0.787,0.487
					c-0.454,0.359-0.848,0.783-1.214,1.23c-0.139,0.169-0.285,0.332-0.431,0.496c-0.25,0.209-0.497,0.422-0.727,0.65
					c-0.236,0.234-0.489,0.529-0.574,0.858c-0.101,0.391,0.237,0.559,0.576,0.581c0.557,0.035,0.968-0.323,1.326-0.705
					c0.462-0.494,0.959-0.935,1.508-1.331c0.126-0.091,0.256-0.173,0.387-0.251c0.754-0.634,3.089-0.814,2.808-0.71
					c-0.052,0.019-0.104,0.033-0.156,0.052c-0.04,0.015-0.076,0.017-0.108,0.012c-0.608,0.149-1.204,0.34-1.732,0.648
					c-0.036,0.045-0.073,0.091-0.108,0.137c-0.506,0.658-1.084,1.257-1.632,1.882c-0.28,0.32-0.565,0.628-0.854,0.94
					c-0.189,0.204-1.291,1.328-0.549,1.466c0.21,0.039,0.447-0.021,0.647-0.084c0.276-0.087,0.533-0.237,0.764-0.409
					c0.511-0.381,0.93-0.871,1.339-1.356c0.219-0.261,0.43-0.542,0.682-0.771c0.323-0.293,0.731-0.477,1.145-0.599
					c0.658-0.195,1.334-0.277,2.014-0.311c-0.234,0.074-0.468,0.148-0.699,0.229c-1.01,0.352-1.603,1.044-2.308,1.799
					c-0.337,0.36-0.77,0.616-1.092,0.988c-0.192,0.222-0.38,0.577-0.144,0.841c0.174,0.194,0.472,0.134,0.686,0.052
					c0.713-0.271,1.244-0.837,1.836-1.295c0.683-0.527,1.492-0.842,2.275-1.187c0.894-0.394,1.617-0.157,2.531,0.01
					c0.447,0.082,0.897,0.145,1.349,0.192c0.914,0.096,1.85,0.142,2.767,0.074c0.349-0.026,0.708-0.101,1.005-0.297
					c0.228-0.15,0.393-0.352,0.509-0.588C192.299,184.162,192.06,182.997,191.678,182.163z"/>
				<g>
					<path style="fill:#F6DFC9;" d="M178.428,183.528c0.126-0.091,0.256-0.173,0.387-0.251c0.16-0.135,0.394-0.248,0.658-0.344
						c0.006-0.008,0.013-0.015,0.019-0.023c0.035-0.046,0.072-0.091,0.108-0.137c0.528-0.308,1.124-0.499,1.732-0.648
						c0.033,0.005,0.069,0.003,0.108-0.012c0.052-0.019,0.104-0.033,0.156-0.052c0.281-0.104-2.054,0.076-2.808,0.71
						c-0.131,0.078-0.261,0.16-0.387,0.251c-0.549,0.396-1.046,0.838-1.508,1.331c-0.358,0.382-0.77,0.741-1.326,0.705
						c-0.199-0.013-0.385-0.084-0.495-0.212c-0.018,0.045-0.041,0.09-0.053,0.137c-0.101,0.391,0.237,0.559,0.576,0.581
						c0.557,0.035,0.968-0.323,1.326-0.705C177.382,184.366,177.878,183.925,178.428,183.528z"/>
					<path style="fill:#F6DFC9;" d="M175.207,181.097c0.165,0.073,0.354,0.106,0.545,0.114c0.928-0.084,1.786-0.562,2.641-0.892
						c0.279-0.108,0.579-0.166,0.872-0.218c0.303-0.054,0.609-0.085,0.916-0.105c0.333-0.159,0.662-0.326,1.017-0.434
						c0.091-0.028,0.183-0.052,0.276-0.076c-0.302-0.018-0.605-0.026-0.908-0.019c-0.445,0.01-0.89,0.051-1.329,0.129
						c-0.294,0.053-0.593,0.11-0.872,0.218c-0.856,0.33-1.713,0.807-2.642,0.892c-0.192-0.007-0.38-0.041-0.545-0.114
						c-0.064-0.028-0.119-0.07-0.167-0.118c-0.051,0.083-0.086,0.174-0.084,0.273C174.934,180.917,175.061,181.033,175.207,181.097z
						"/>
					<path style="fill:#F6DFC9;" d="M192.051,183.455c-0.014,0.368-0.099,0.723-0.289,1.033c-0.116,0.236-0.281,0.438-0.509,0.588
						c-0.297,0.195-0.656,0.27-1.005,0.296c-0.918,0.068-1.853,0.022-2.767-0.074c-0.452-0.047-0.902-0.11-1.349-0.192
						c-0.914-0.167-1.637-0.405-2.531-0.01c-0.783,0.345-1.592,0.66-2.275,1.187c-0.592,0.457-1.123,1.023-1.836,1.294
						c-0.214,0.081-0.512,0.141-0.686-0.052c-0.009-0.01-0.008-0.022-0.016-0.033c-0.079,0.18-0.102,0.375,0.044,0.538
						c0.174,0.194,0.472,0.134,0.686,0.052c0.713-0.271,1.244-0.837,1.836-1.295c0.683-0.527,1.492-0.842,2.275-1.187
						c0.894-0.394,1.617-0.157,2.531,0.01c0.447,0.082,0.897,0.145,1.349,0.192c0.914,0.096,1.85,0.142,2.767,0.074
						c0.349-0.026,0.708-0.101,1.005-0.296c0.228-0.15,0.393-0.352,0.509-0.588C192.066,184.543,192.118,183.995,192.051,183.455z"
						/>
					<path style="fill:#F6DFC9;" d="M179.918,185.084c0.323-0.293,0.731-0.477,1.145-0.599c0.111-0.033,0.226-0.046,0.338-0.073
						c0.282-0.204,0.583-0.387,0.949-0.515c0.232-0.081,0.466-0.154,0.699-0.229c-0.68,0.034-1.356,0.116-2.014,0.311
						c-0.414,0.123-0.822,0.306-1.145,0.599c-0.253,0.229-0.463,0.51-0.683,0.771c-0.409,0.485-0.828,0.975-1.339,1.356
						c-0.231,0.172-0.488,0.323-0.764,0.409c-0.199,0.062-0.436,0.123-0.647,0.084c-0.059-0.011-0.088-0.037-0.125-0.06
						c-0.139,0.268-0.163,0.506,0.152,0.565c0.21,0.039,0.447-0.021,0.647-0.084c0.276-0.087,0.533-0.237,0.764-0.409
						c0.511-0.381,0.93-0.871,1.339-1.356C179.454,185.594,179.665,185.313,179.918,185.084z"/>
				</g>
				<g>
					<path style="fill:#F6DFC9;" d="M175.161,180.712c0.336-0.338,0.764-0.558,1.132-0.853c0.46-0.369,0.94-0.657,1.503-0.842
						c0.565-0.185,1.154-0.28,1.742-0.353c0.709-0.088,1.423-0.137,2.137-0.168c0.54-0.023,1.084-0.039,1.626-0.027
						c0.226-0.049,0.455-0.027,0.68,0.022c0.589,0.127,1.168,0.355,1.736,0.551c0.655,0.226,1.305,0.464,1.955,0.706
						c0.634,0.236,1.288,0.443,1.906,0.718c0.459,0.204,0.888,0.478,1.236,0.843c0.36,0.378,0.625,0.83,0.842,1.302
						c0.216,0.471,0.38,1.048,0.396,1.61c0.097-0.693-0.099-1.461-0.373-2.059c-0.216-0.472-0.482-0.924-0.842-1.302
						c-0.348-0.365-0.777-0.639-1.236-0.843c-0.618-0.275-1.272-0.482-1.906-0.718c-0.649-0.242-1.3-0.48-1.955-0.706
						c-0.568-0.196-1.147-0.423-1.735-0.551c-0.225-0.049-0.454-0.071-0.68-0.022c-0.542-0.012-1.086,0.004-1.626,0.027
						c-0.714,0.031-1.428,0.08-2.137,0.168c-0.588,0.073-1.177,0.167-1.742,0.353c-0.563,0.185-1.043,0.473-1.503,0.842
						c-0.369,0.296-0.797,0.516-1.132,0.854c-0.127,0.128-0.259,0.293-0.254,0.484c0.002,0.067,0.034,0.118,0.067,0.168
						C175.044,180.841,175.102,180.772,175.161,180.712z"/>
					<path style="fill:#F6DFC9;" d="M180.046,186.65c0.705-0.755,1.298-1.448,2.308-1.799c0.232-0.081,0.466-0.154,0.699-0.229
						c-0.504,0.025-1.002,0.095-1.495,0.199c-0.558,0.371-1.001,0.857-1.49,1.38c-0.337,0.36-0.77,0.616-1.092,0.988
						c-0.166,0.192-0.312,0.481-0.2,0.727c0.048-0.102,0.109-0.2,0.177-0.278C179.277,187.266,179.71,187.01,180.046,186.65z"/>
					<path style="fill:#F6DFC9;" d="M176.296,183.925c0.145-0.164,0.292-0.326,0.43-0.496c0.366-0.446,0.76-0.871,1.214-1.23
						c0.248-0.196,0.512-0.351,0.788-0.487c0.003-0.002,0.006-0.005,0.009-0.007c0.369-0.275,0.772-0.448,1.19-0.632
						c0.425-0.188,0.83-0.421,1.277-0.557c0.091-0.028,0.183-0.052,0.276-0.076c-0.302-0.018-0.605-0.026-0.908-0.019
						c-0.073,0.002-0.145,0.01-0.218,0.013c-0.134,0.065-0.268,0.131-0.404,0.191c-0.418,0.184-0.821,0.357-1.19,0.632
						c-0.003,0.003-0.006,0.005-0.009,0.008c-0.275,0.135-0.54,0.291-0.787,0.487c-0.454,0.359-0.848,0.783-1.214,1.23
						c-0.139,0.17-0.285,0.332-0.43,0.496c-0.25,0.209-0.497,0.422-0.727,0.65c-0.236,0.234-0.489,0.529-0.574,0.858
						c-0.032,0.125-0.009,0.22,0.034,0.302c0.112-0.269,0.317-0.513,0.517-0.711C175.799,184.347,176.046,184.134,176.296,183.925z"
						/>
					<path style="fill:#F6DFC9;" d="M177.865,185.747c0.547-0.625,1.125-1.224,1.632-1.882c0.035-0.046,0.071-0.091,0.108-0.137
						c0.528-0.308,1.125-0.499,1.732-0.648c0.033,0.005,0.068,0.003,0.108-0.012c0.052-0.019,0.104-0.033,0.156-0.052
						c0.211-0.078-1.055,0.004-2.017,0.318c-0.022,0.027-0.043,0.054-0.064,0.081c-0.506,0.658-1.084,1.257-1.632,1.882
						c-0.28,0.32-0.565,0.628-0.854,0.94c-0.167,0.179-1.037,1.071-0.738,1.376c0.181-0.369,0.603-0.807,0.715-0.928
						C177.299,186.375,177.585,186.066,177.865,185.747z"/>
				</g>
				<g>
					<g>
						<path style="fill:#F6DFC9;" d="M217.58,174.398c-0.178-1.213-0.553-2.392-0.946-3.556c-0.997-2.95-1.84-5.942-2.869-8.884
							c-1.554-4.444-2.982-9.862-6.109-13.618c-0.82-0.985-1.872-1.903-3.047-2.428c-0.141-0.046-0.283-0.088-0.428-0.122
							c-0.559-0.133-1.091-0.071-1.57,0.234c-0.282,0.179-0.527,0.41-0.757,0.647c-0.275,0.283-0.504,0.604-0.69,0.95
							c-0.382,0.709-0.589,1.498-0.708,2.294c-0.223,1.502-0.18,3.043,0.129,4.543c0.27,1.311,0.699,2.577,1.184,3.827
							c1.312,2.165,2.683,4.303,3.653,6.637c0.663,1.594,1.368,3.173,2.007,4.776c0.598,1.501,1.147,3.021,1.614,4.564
							c0.386,1.279,0.773,2.623,1.574,3.73c0.392,0.542,0.906,1.005,1.531,1.271c0.651,0.278,1.372,0.325,2.059,0.217
							c1.199-0.189,2.411-0.792,2.999-1.862C217.737,176.649,217.738,175.477,217.58,174.398z"/>
						<path style="fill:#F6DFC9;" d="M190.753,184.764c0,0,19.575-1.578,23.855-4.31c4.28-2.731,3.574-7.337,1.18-8.646
							c-2.395-1.31-5.859-0.912-8.988,1.12c-3.128,2.033-17.192,8.038-17.192,8.038L190.753,184.764z"/>
					</g>
				</g>
			</g>
			<g>
				<path style="fill:#F6DFC9;" d="M176.053,243.102c-0.534-0.514-1.016-0.902-1.167-1.666c-0.076-0.383-0.267-0.574-0.62-0.323
					c-0.25,0.178-0.472,0.397-0.694,0.607c-0.277,0.264-1.523,0.06-1.733,0.507c-0.305,0.65-0.517,2.656-0.734,3.339
					c-0.24,0.758-0.542,1.5-0.885,2.217c-0.571,1.192-1.363,2.708-2.183,3.741c-0.326,0.411-0.7,0.943-0.89,1.432
					c-0.19,0.489-0.099,0.531,0.117,1.008c0.754,1.672,3.377,0.209,4.368-0.423c1.283-0.818,2.305-1.984,3.064-3.295
					c0.374-0.646,0.686-1.328,0.945-2.028c0.244-0.658,0.327-1.487,0.827-2.009c0.185-0.193,0.417-0.352,0.535-0.592
					c0.388-0.782-0.297-1.842-0.824-2.389C176.138,243.185,176.096,243.143,176.053,243.102z"/>
				<path style="fill:#DCC37E;" d="M164.481,255.803c-0.257,0.312-0.518,0.621-0.788,0.925c-0.5,0.563-0.865,1.327-0.467,2.058
					c0.434,0.796,1.809,0.361,2.49,0.201c0.956-0.225,1.878-0.592,2.732-1.077c1.078-0.613,2.859-1.69,3.655-2.642
					c0.81-0.969,0.928-1.769,1.808-2.677c0.762-0.787,1.17-1.551,1.998-2.263c0.671-0.578,1.454-1.19,1.724-2.059
					c0.15-0.481,0.36-0.932,0.288-1.44c-0.061-0.429-0.224-0.85-0.39-1.249c-0.07-0.168-1.001-2.174-1.16-2.1
					c-0.286,0.35-0.553,0.716-0.794,1.103c-0.421,0.679-0.724,1.415-1.096,2.12c-0.726,1.376-1.724,2.593-2.834,3.665
					c-0.738,0.713-1.526,1.465-2.449,1.928c-0.376,0.188-0.833,0.347-1.254,0.203c-0.35-0.119,0.158-0.631,0.093-0.974
					c-0.516,0.705-1.144,1.347-1.709,2.013C165.696,254.283,165.1,255.051,164.481,255.803z"/>
			</g>
		</g>
	</g>
	<g>
		<g>
			<path style="fill:#E3E2D7;" d="M60.434,187.042c-1.736-6.776,3.514-9.904,3.514-9.904s-9.333-0.046-14.304-0.07l0-0.014
				c-0.053,0-0.623,0.003-1.516,0.007c-0.893-0.004-1.464-0.007-1.516-0.007l0,0.014c-4.971,0.024-14.304,0.07-14.304,0.07
				s5.25,3.129,3.514,9.904c-1.736,6.776-9.145,9.336-7.699,26.201c1.446,16.865,11.535,23.641,11.535,23.641h0.044
				c0,0.277,3.547,0.502,7.923,0.502c0.17,0,0.337-0.001,0.505-0.002c0.168,0.001,0.334,0.002,0.505,0.002
				c4.376,0,7.923-0.225,7.923-0.502h0.044c0,0,10.089-6.776,11.535-23.641C69.579,196.378,62.17,193.818,60.434,187.042z"/>
			<path style="fill:#B2B6B6;" d="M63.998,177.053c0,0.555-7.094,1.004-15.846,1.004c-8.751,0-15.846-0.45-15.846-1.004
				c0-0.555,7.095-1.004,15.846-1.004C56.904,176.049,63.998,176.499,63.998,177.053z"/>
			<g>
				<polygon style="fill:#B29E7A;" points="39.836,225.91 38.521,225.91 38.795,224.842 39.435,224.767 				"/>
				<polygon style="fill:#AFA0AB;" points="44.062,230.487 43.895,230.08 44.26,230.029 44.365,230.217 				"/>
				<polygon style="fill:#C1A280;" points="35.977,230.716 35.729,230.113 36.27,230.037 36.425,230.316 				"/>
				<polygon style="fill:#ADC1BD;" points="45.041,223.673 44.693,222.827 45.453,222.72 45.671,223.112 				"/>
				<polygon style="fill:#EBE9A2;" points="40.348,234.494 40,233.647 40.76,233.54 40.978,233.932 				"/>
			</g>
			<g>
				<polygon style="fill:#B29E7A;" points="54.813,230.115 55.817,229.265 56.298,230.257 55.859,230.728 				"/>
				<polygon style="fill:#AFA0AB;" points="48.631,229.353 49.022,229.555 48.776,229.831 48.574,229.755 				"/>
				<polygon style="fill:#C1A280;" points="54.654,223.954 55.232,224.253 54.868,224.661 54.569,224.549 				"/>
				<polygon style="fill:#ADC1BD;" points="52.286,235.186 53.099,235.606 52.588,236.179 52.168,236.021 				"/>
				<polygon style="fill:#EBE9A2;" points="48.876,223.895 49.689,224.316 49.178,224.889 48.758,224.73 				"/>
			</g>
			<g>
				<polygon style="fill:#ADC1BD;" points="64.109,220.208 65.113,219.359 65.594,220.351 65.154,220.822 				"/>
				<polygon style="fill:#AFA0AB;" points="57.926,219.447 58.317,219.649 58.072,219.924 57.87,219.848 				"/>
				<polygon style="fill:#C1A280;" points="63.949,214.047 64.528,214.347 64.164,214.755 63.865,214.642 				"/>
				<polygon style="fill:#DBCA74;" points="61.582,225.279 62.395,225.7 61.884,226.273 61.464,226.114 				"/>
				<polygon style="fill:#EBE9A2;" points="58.172,213.989 58.985,214.409 58.473,214.982 58.054,214.824 				"/>
			</g>
			<g>
				<polygon style="fill:#ADC1BD;" points="37.036,216.656 38.04,215.806 38.521,216.798 38.081,217.27 				"/>
				<polygon style="fill:#AFA0AB;" points="30.853,215.894 31.244,216.096 30.998,216.372 30.796,216.296 				"/>
				<polygon style="fill:#C1A280;" points="36.876,210.495 37.455,210.794 37.091,211.202 36.792,211.09 				"/>
				<polygon style="fill:#DBCA74;" points="34.509,221.727 35.322,222.147 34.811,222.72 34.391,222.562 				"/>
				<polygon style="fill:#EBE9A2;" points="31.099,210.436 31.912,210.857 31.4,211.43 30.981,211.271 				"/>
			</g>
			<g>
				<polygon style="fill:#84B5BC;" points="37.691,199.574 39.004,199.507 38.785,200.588 38.149,200.696 				"/>
				<polygon style="fill:#AFA0AB;" points="33.236,195.219 33.424,195.617 33.062,195.687 32.948,195.505 				"/>
				<polygon style="fill:#C1A280;" points="41.299,194.578 41.578,195.168 41.041,195.271 40.872,195.001 				"/>
				<polygon style="fill:#DBCA74;" points="32.606,202.074 32.997,202.902 32.243,203.047 32.006,202.667 				"/>
				<polygon style="fill:#EBE9A2;" points="36.741,191.029 37.132,191.856 36.378,192.001 36.141,191.621 				"/>
			</g>
			<g>
				<polygon style="fill:#84B5BC;" points="53.403,193.313 52.425,194.192 51.914,193.215 52.34,192.731 				"/>
				<polygon style="fill:#AFA0AB;" points="59.606,193.887 59.209,193.696 59.446,193.413 59.65,193.483 				"/>
				<polygon style="fill:#C1A280;" points="53.749,199.466 53.161,199.184 53.513,198.765 53.815,198.869 				"/>
				<polygon style="fill:#DBCA74;" points="55.775,188.167 54.95,187.771 55.443,187.184 55.868,187.329 				"/>
				<polygon style="fill:#EBE9A2;" points="59.526,199.349 58.701,198.953 59.194,198.365 59.618,198.511 				"/>
			</g>
			<g>
				<polygon style="fill:#84B5BC;" points="48.046,187.038 48.963,186.095 49.538,187.037 49.145,187.548 				"/>
				<polygon style="fill:#AFA0AB;" points="41.819,186.876 42.227,187.04 42.009,187.338 41.801,187.282 				"/>
				<polygon style="fill:#C1A280;" points="47.292,180.921 47.897,181.163 47.574,181.605 47.266,181.521 				"/>
				<polygon style="fill:#DBCA74;" points="46.02,192.329 46.87,192.669 46.416,193.289 45.983,193.172 				"/>
				<polygon style="fill:#EBE9A2;" points="41.536,181.42 42.386,181.761 41.932,182.38 41.499,182.263 				"/>
			</g>
			<g>
				<polygon style="fill:#84B5BC;" points="49.473,213.378 50.786,213.311 50.567,214.391 49.931,214.499 				"/>
				<polygon style="fill:#AFA0AB;" points="45.018,209.023 45.206,209.421 44.844,209.49 44.73,209.308 				"/>
				<polygon style="fill:#C1A280;" points="53.082,208.382 53.36,208.971 52.823,209.074 52.654,208.804 				"/>
				<polygon style="fill:#DBCA74;" points="44.388,215.877 44.779,216.705 44.026,216.85 43.788,216.47 				"/>
				<polygon style="fill:#EBE9A2;" points="48.523,204.832 48.914,205.659 48.16,205.805 47.923,205.424 				"/>
			</g>
			<g>
				<polygon style="fill:#ADC1BD;" points="58.838,208.363 58.922,209.675 57.838,209.47 57.722,208.836 				"/>
				<polygon style="fill:#AFA0AB;" points="63.133,203.851 62.738,204.045 62.663,203.683 62.845,203.566 				"/>
				<polygon style="fill:#C1A280;" points="63.88,211.905 63.295,212.192 63.184,211.656 63.453,211.483 				"/>
				<polygon style="fill:#DBCA74;" points="56.271,203.311 55.449,203.713 55.293,202.962 55.671,202.719 				"/>
				<polygon style="fill:#EBE9A2;" points="67.37,207.301 66.548,207.703 66.393,206.951 66.77,206.708 				"/>
			</g>
		</g>
		<g>
			<g>
				<path style="fill:#78A067;" d="M53.332,109.502c-0.615-0.599-1.069-1.328-1.415-2.112c-0.082-0.232-0.158-0.464-0.232-0.693
					c-0.544-1.701-0.642-3.588-0.199-5.353c0.251-0.999,0.674-1.938,1.263-2.796c0.07-0.102,0.177-0.104,0.268-0.028
					c1.319,1.111,2.063,2.883,2.491,4.519c0.462,1.766,0.516,3.579,0.149,5.387c-0.21,0.712-0.513,1.399-0.914,2.025
					C54.221,110.222,53.745,109.904,53.332,109.502z"/>
				<path style="fill:#5B895D;" d="M50.918,115.929c-0.615-0.599-1.069-1.328-1.415-2.112c-0.082-0.232-0.158-0.464-0.232-0.693
					c-0.544-1.701-0.642-3.588-0.2-5.353c0.251-0.999,0.674-1.938,1.263-2.796c0.07-0.102,0.177-0.104,0.268-0.028
					c1.319,1.111,2.063,2.883,2.491,4.519c0.462,1.766,0.516,3.579,0.148,5.387c-0.21,0.712-0.513,1.399-0.914,2.025
					C51.807,116.649,51.331,116.331,50.918,115.929z"/>
				<path style="fill:#78A067;" d="M48.915,121.882c-0.722-0.464-1.312-1.089-1.807-1.788c-0.126-0.211-0.248-0.423-0.365-0.633
					c-0.872-1.559-1.343-3.388-1.261-5.206c0.047-1.029,0.275-2.033,0.682-2.991c0.048-0.114,0.153-0.137,0.257-0.08
					c1.513,0.827,2.596,2.415,3.34,3.933c0.804,1.638,1.218,3.405,1.217,5.25c-0.064,0.739-0.224,1.473-0.493,2.167
					C49.93,122.41,49.4,122.193,48.915,121.882z"/>
				<path style="fill:#5B895D;" d="M47.502,127.792c-0.793-0.329-1.484-0.839-2.095-1.439c-0.162-0.185-0.319-0.372-0.471-0.558
					c-1.134-1.379-1.923-3.097-2.163-4.9c-0.136-1.021-0.089-2.05,0.141-3.065c0.027-0.12,0.126-0.162,0.238-0.124
					c1.636,0.545,2.982,1.917,3.985,3.279c1.082,1.47,1.802,3.135,2.129,4.951c0.068,0.739,0.04,1.489-0.101,2.22
					C48.594,128.133,48.034,128.013,47.502,127.792z"/>
				<path style="fill:#78A067;" d="M46.463,135.37c-0.942-0.37-1.767-0.937-2.497-1.602c-0.194-0.204-0.382-0.412-0.565-0.617
					c-1.36-1.523-2.316-3.411-2.625-5.386c-0.175-1.118-0.134-2.242,0.125-3.348c0.031-0.131,0.147-0.175,0.28-0.133
					c1.942,0.618,3.553,2.136,4.756,3.638c1.299,1.622,2.173,3.451,2.584,5.441c0.09,0.809,0.068,1.629-0.089,2.425
					C47.758,135.757,47.095,135.619,46.463,135.37z"/>
				<path style="fill:#5B895D;" d="M45.87,141.748c-0.914-0.241-1.745-0.695-2.501-1.259c-0.204-0.178-0.403-0.359-0.597-0.539
					c-1.444-1.337-2.559-3.093-3.091-5.026c-0.301-1.094-0.403-2.224-0.303-3.366c0.012-0.135,0.113-0.196,0.242-0.171
					c1.866,0.352,3.54,1.647,4.837,2.984c1.399,1.443,2.433,3.153,3.06,5.086c0.184,0.796,0.266,1.619,0.221,2.438
					C47.113,141.957,46.484,141.91,45.87,141.748z"/>
				<path style="fill:#8AB676;" d="M45.218,148.204c-0.914-0.241-1.745-0.695-2.501-1.259c-0.204-0.178-0.403-0.359-0.597-0.539
					c-1.444-1.337-2.559-3.093-3.091-5.026c-0.301-1.094-0.403-2.224-0.303-3.366c0.012-0.135,0.113-0.195,0.242-0.171
					c1.867,0.351,3.54,1.647,4.837,2.984c1.399,1.443,2.433,3.153,3.061,5.086c0.184,0.796,0.266,1.619,0.221,2.437
					C46.46,148.413,45.832,148.365,45.218,148.204z"/>
				<path style="fill:#5B895D;" d="M45.587,154.973c-0.939-0.111-1.825-0.445-2.652-0.898c-0.227-0.148-0.449-0.299-0.667-0.45
					c-1.616-1.123-2.965-2.707-3.761-4.546c-0.45-1.041-0.709-2.146-0.769-3.291c-0.007-0.136,0.085-0.209,0.216-0.203
					c1.897,0.088,3.735,1.138,5.205,2.282c1.587,1.234,2.849,2.783,3.739,4.61c0.293,0.763,0.489,1.566,0.558,2.383
					C46.846,155.007,46.217,155.047,45.587,154.973z"/>
				<path style="fill:#8AB676;" d="M45.284,160.891c-0.939-0.111-1.825-0.445-2.652-0.898c-0.227-0.148-0.449-0.299-0.667-0.45
					c-1.616-1.122-2.965-2.706-3.761-4.546c-0.45-1.041-0.709-2.146-0.769-3.291c-0.007-0.136,0.085-0.209,0.216-0.203
					c1.897,0.088,3.735,1.138,5.205,2.282c1.587,1.234,2.849,2.783,3.739,4.61c0.293,0.763,0.489,1.566,0.558,2.383
					C46.544,160.925,45.915,160.966,45.284,160.891z"/>
				<path style="fill:#5B895D;" d="M46.225,169.117c-0.975-0.13-1.896-0.505-2.758-1.011c-0.236-0.164-0.468-0.333-0.695-0.502
					c-1.685-1.249-3.097-3.005-3.938-5.037c-0.475-1.15-0.753-2.369-0.825-3.63c-0.008-0.149,0.087-0.23,0.222-0.222
					c1.968,0.113,3.883,1.285,5.417,2.556c1.656,1.372,2.977,3.088,3.916,5.108c0.31,0.843,0.52,1.729,0.599,2.629
					C47.531,169.165,46.879,169.204,46.225,169.117z"/>
				<path style="fill:#446B47;" d="M61.237,100.884c-3.508,3.657-6.132,7.962-8.072,12.629c-2.004,4.82-3.302,9.916-4.232,15.044
					c-0.908,5.007-1.473,10.073-1.903,15.141c-0.556,6.554-0.54,13.153-0.019,19.709c0.39,4.898,1.055,9.78,2.002,14.604
					c0.252,0.023,0.504,0.042,0.756,0.066c-0.179-0.87-0.35-1.742-0.505-2.617c-0.569-3.214-1.021-6.45-1.348-9.698
					c-0.656-6.514-0.811-13.08-0.407-19.616c0.321-5.188,0.874-10.389,1.689-15.523c0.813-5.115,1.95-10.194,3.704-15.074
					c1.697-4.721,4.028-9.331,7.263-13.194c0.388-0.464,0.799-0.91,1.215-1.347C61.493,100.89,61.349,100.768,61.237,100.884z"/>
				<path style="fill:#8AB676;" d="M49.96,167.821c1.276-0.184,2.477-0.659,3.597-1.291c0.307-0.204,0.608-0.413,0.902-0.622
					c2.185-1.548,4.003-3.697,5.065-6.163c0.601-1.396,0.94-2.868,1.009-4.385c0.008-0.18-0.118-0.274-0.296-0.261
					c-2.579,0.19-5.068,1.651-7.055,3.221c-2.144,1.695-3.844,3.794-5.035,6.247c-0.39,1.021-0.648,2.092-0.733,3.176
					C48.248,167.915,49.104,167.945,49.96,167.821z"/>
				<path style="fill:#5B895D;" d="M49.5,160.201c1.289,0.02,2.55-0.259,3.756-0.706c0.335-0.153,0.665-0.312,0.989-0.472
					c2.402-1.183,4.537-3.018,5.975-5.285c0.814-1.283,1.382-2.683,1.689-4.171c0.036-0.176-0.073-0.289-0.25-0.304
					c-2.577-0.22-5.265,0.829-7.475,2.066c-2.385,1.335-4.396,3.139-5.959,5.373c-0.547,0.947-0.97,1.964-1.225,3.02
					C47.795,160.022,48.635,160.187,49.5,160.201z"/>
				<path style="fill:#8AB676;" d="M49.147,152.867c1.105,0.092,2.198-0.083,3.252-0.408c0.294-0.116,0.584-0.238,0.868-0.36
					c2.11-0.907,4.018-2.405,5.346-4.325c0.752-1.087,1.297-2.291,1.623-3.587c0.039-0.154-0.051-0.259-0.202-0.283
					c-2.201-0.342-4.551,0.43-6.499,1.396c-2.102,1.042-3.901,2.52-5.336,4.403c-0.508,0.805-0.914,1.679-1.177,2.597
					C47.692,152.611,48.406,152.805,49.147,152.867z"/>
				<path style="fill:#5B895D;" d="M49.484,147.424c1.105-0.055,2.165-0.375,3.167-0.838c0.276-0.154,0.548-0.314,0.814-0.473
					c1.974-1.182,3.675-2.924,4.749-5.009c0.608-1.18,0.997-2.449,1.157-3.78c0.019-0.158-0.083-0.251-0.236-0.254
					c-2.221-0.047-4.45,1.033-6.256,2.251c-1.95,1.315-3.545,3.023-4.729,5.085c-0.402,0.867-0.694,1.79-0.84,2.737
					C48.011,147.364,48.742,147.461,49.484,147.424z"/>
				<path style="fill:#8AB676;" d="M49.833,140.778c1.105-0.055,2.165-0.375,3.167-0.838c0.276-0.154,0.548-0.314,0.813-0.473
					c1.975-1.182,3.675-2.924,4.749-5.009c0.608-1.18,0.997-2.449,1.157-3.78c0.019-0.158-0.083-0.251-0.236-0.255
					c-2.221-0.047-4.45,1.033-6.256,2.251c-1.95,1.315-3.545,3.023-4.729,5.085c-0.402,0.867-0.694,1.79-0.84,2.737
					C48.36,140.718,49.091,140.815,49.833,140.778z"/>
				<path style="fill:#5B895D;" d="M50.768,133.972c1.105-0.055,2.165-0.375,3.167-0.838c0.276-0.154,0.548-0.314,0.813-0.473
					c1.975-1.182,3.675-2.924,4.749-5.009c0.608-1.18,0.997-2.449,1.157-3.78c0.019-0.158-0.083-0.251-0.236-0.254
					c-2.221-0.047-4.45,1.033-6.256,2.251c-1.95,1.315-3.545,3.023-4.729,5.085c-0.402,0.867-0.694,1.79-0.84,2.737
					C49.296,133.911,50.027,134.009,50.768,133.972z"/>
				<path style="fill:#8AB676;" d="M51.544,128.861c1.105-0.055,2.165-0.375,3.167-0.838c0.276-0.154,0.548-0.314,0.814-0.473
					c1.974-1.182,3.675-2.924,4.749-5.009c0.608-1.18,0.997-2.449,1.157-3.78c0.019-0.158-0.083-0.251-0.236-0.254
					c-2.221-0.047-4.45,1.033-6.256,2.251c-1.95,1.315-3.545,3.023-4.729,5.085c-0.402,0.867-0.694,1.79-0.84,2.737
					C50.071,128.8,50.802,128.898,51.544,128.861z"/>
				<path style="fill:#5B895D;" d="M52.688,123.241c1.105-0.055,2.165-0.375,3.167-0.838c0.276-0.154,0.548-0.314,0.814-0.473
					c1.975-1.182,3.675-2.924,4.749-5.008c0.608-1.18,0.997-2.449,1.157-3.78c0.019-0.158-0.083-0.251-0.236-0.254
					c-2.221-0.047-4.45,1.033-6.256,2.251c-1.949,1.315-3.545,3.023-4.729,5.085c-0.402,0.867-0.694,1.79-0.84,2.737
					C51.215,123.181,51.946,123.278,52.688,123.241z"/>
				<path style="fill:#8AB676;" d="M57.823,107.268c0.806-0.541,1.46-1.257,2.005-2.055c0.138-0.24,0.271-0.481,0.399-0.72
					c0.953-1.772,1.447-3.838,1.316-5.875c-0.074-1.153-0.354-2.273-0.833-3.337c-0.057-0.126-0.175-0.149-0.292-0.083
					c-1.693,0.969-2.883,2.78-3.693,4.504c-0.874,1.86-1.305,3.853-1.266,5.923c0.088,0.827,0.284,1.646,0.602,2.417
					C56.688,107.889,57.282,107.631,57.823,107.268z"/>
				<path style="fill:#5B895D;" d="M56.967,109.981c0.857-0.043,1.68-0.291,2.458-0.65c0.215-0.12,0.425-0.244,0.631-0.367
					c1.532-0.918,2.852-2.27,3.686-3.887c0.472-0.916,0.774-1.9,0.898-2.934c0.015-0.122-0.064-0.195-0.183-0.197
					c-1.724-0.037-3.453,0.801-4.855,1.747c-1.513,1.021-2.751,2.346-3.67,3.946c-0.312,0.673-0.539,1.389-0.652,2.124
					C55.825,109.934,56.392,110.01,56.967,109.981z"/>
				<path style="fill:#8AB676;" d="M54.694,116.92c1.105-0.056,2.165-0.375,3.167-0.838c0.276-0.154,0.548-0.314,0.814-0.473
					c1.974-1.182,3.675-2.924,4.749-5.009c0.608-1.18,0.997-2.449,1.158-3.78c0.019-0.158-0.083-0.251-0.236-0.254
					c-2.221-0.047-4.45,1.033-6.256,2.251c-1.95,1.315-3.545,3.023-4.729,5.085c-0.403,0.867-0.694,1.79-0.84,2.737
					C53.221,116.859,53.952,116.957,54.694,116.92z"/>
			</g>
			<g>
				<path style="fill:#78A067;" d="M71.339,129.517c-0.336-0.546-0.532-1.158-0.64-1.79c-0.017-0.183-0.03-0.365-0.041-0.545
					c-0.084-1.333,0.19-2.719,0.834-3.917c0.364-0.678,0.843-1.282,1.427-1.796c0.069-0.061,0.147-0.043,0.199,0.029
					c0.753,1.047,0.969,2.467,0.98,3.732c0.012,1.364-0.28,2.689-0.877,3.933c-0.282,0.478-0.628,0.92-1.033,1.301
					C71.852,130.202,71.565,129.884,71.339,129.517z"/>
				<path style="fill:#5B895D;" d="M68.413,133.735c-0.337-0.547-0.533-1.158-0.64-1.79c-0.017-0.183-0.03-0.365-0.041-0.545
					c-0.084-1.333,0.19-2.719,0.834-3.917c0.364-0.678,0.843-1.282,1.427-1.796c0.069-0.061,0.147-0.043,0.199,0.029
					c0.753,1.047,0.969,2.467,0.98,3.732c0.012,1.365-0.28,2.689-0.877,3.933c-0.283,0.477-0.628,0.92-1.033,1.301
					C68.926,134.42,68.639,134.102,68.413,133.735z"/>
				<path style="fill:#78A067;" d="M65.873,137.685c-0.439-0.469-0.752-1.029-0.983-1.627c-0.053-0.176-0.102-0.352-0.149-0.525
					c-0.347-1.289-0.354-2.702,0.038-4.005c0.222-0.737,0.571-1.424,1.041-2.044c0.056-0.074,0.136-0.071,0.201-0.011
					c0.946,0.876,1.44,2.225,1.703,3.462c0.283,1.335,0.26,2.691-0.077,4.029c-0.182,0.524-0.432,1.027-0.753,1.481
					C66.512,138.253,66.168,137.999,65.873,137.685z"/>
				<path style="fill:#5B895D;" d="M63.768,141.711c-0.515-0.383-0.923-0.88-1.256-1.427c-0.083-0.164-0.163-0.328-0.239-0.491
					c-0.57-1.208-0.828-2.597-0.672-3.948c0.088-0.765,0.31-1.502,0.663-2.196c0.042-0.082,0.121-0.094,0.196-0.047
					c1.086,0.695,1.812,1.935,2.289,3.105c0.515,1.264,0.733,2.602,0.638,3.979c-0.086,0.548-0.243,1.087-0.479,1.591
					C64.497,142.158,64.113,141.969,63.768,141.711z"/>
				<path style="fill:#78A067;" d="M61.629,147.015c-0.615-0.441-1.109-1.003-1.518-1.618c-0.103-0.184-0.201-0.368-0.297-0.55
					c-0.707-1.353-1.055-2.896-0.918-4.385c0.077-0.842,0.313-1.65,0.703-2.405c0.046-0.089,0.139-0.1,0.228-0.045
					c1.295,0.803,2.185,2.198,2.783,3.507c0.645,1.413,0.944,2.9,0.879,4.417c-0.083,0.603-0.249,1.193-0.508,1.742
					C62.497,147.533,62.042,147.311,61.629,147.015z"/>
				<path style="fill:#5B895D;" d="M60.033,151.531c-0.619-0.342-1.138-0.823-1.583-1.37c-0.116-0.166-0.227-0.334-0.335-0.5
					c-0.802-1.233-1.29-2.71-1.322-4.209c-0.018-0.848,0.115-1.686,0.396-2.495c0.033-0.096,0.118-0.121,0.207-0.08
					c1.289,0.596,2.266,1.842,2.961,3.048c0.75,1.302,1.188,2.731,1.289,4.247c-0.012,0.611-0.103,1.223-0.286,1.807
					C60.896,151.909,60.449,151.76,60.033,151.531z"/>
				<path style="fill:#8AB676;" d="M58.38,156.092c-0.619-0.342-1.138-0.823-1.583-1.37c-0.115-0.166-0.226-0.334-0.334-0.5
					c-0.802-1.233-1.29-2.71-1.322-4.209c-0.018-0.848,0.115-1.686,0.396-2.495c0.033-0.096,0.118-0.121,0.207-0.08
					c1.289,0.596,2.266,1.842,2.961,3.048c0.751,1.302,1.188,2.731,1.289,4.247c-0.012,0.611-0.103,1.223-0.286,1.808
					C59.242,156.47,58.795,156.321,58.38,156.092z"/>
				<path style="fill:#5B895D;" d="M57.41,161.066c-0.66-0.252-1.242-0.656-1.759-1.136c-0.137-0.148-0.271-0.299-0.401-0.448
					c-0.966-1.109-1.655-2.505-1.895-3.984c-0.136-0.837-0.121-1.685,0.044-2.526c0.02-0.1,0.1-0.136,0.194-0.108
					c1.359,0.411,2.5,1.508,3.357,2.606c0.925,1.185,1.556,2.539,1.868,4.026c0.073,0.607,0.068,1.225-0.031,1.83
					C58.316,161.321,57.853,161.236,57.41,161.066z"/>
				<path style="fill:#8AB676;" d="M56.108,165.302c-0.66-0.252-1.242-0.656-1.759-1.136c-0.137-0.148-0.271-0.299-0.401-0.448
					c-0.966-1.109-1.655-2.504-1.895-3.984c-0.136-0.837-0.121-1.685,0.045-2.526c0.02-0.1,0.1-0.136,0.194-0.108
					c1.359,0.411,2.5,1.508,3.357,2.606c0.925,1.185,1.556,2.539,1.868,4.026c0.073,0.607,0.068,1.225-0.031,1.83
					C57.015,165.557,56.551,165.471,56.108,165.302z"/>
				<path style="fill:#5B895D;" d="M55.286,171.437c-0.683-0.273-1.282-0.713-1.814-1.237c-0.141-0.162-0.278-0.327-0.412-0.491
					c-0.993-1.214-1.696-2.745-1.934-4.372c-0.135-0.921-0.113-1.855,0.066-2.782c0.021-0.11,0.105-0.151,0.201-0.12
					c1.406,0.442,2.58,1.641,3.46,2.844c0.949,1.298,1.594,2.783,1.905,4.419c0.071,0.668,0.061,1.348-0.047,2.015
					C56.224,171.711,55.744,171.62,55.286,171.437z"/>
				<path style="fill:#446B47;" d="M78.646,124.715c-3.212,2.009-5.901,4.651-8.161,7.68c-2.334,3.128-4.207,6.585-5.819,10.133
					c-1.574,3.464-2.91,7.033-4.148,10.629c-1.601,4.65-2.796,9.437-3.617,14.285c-0.583,3.445-0.98,6.926-1.186,10.416
					c0.002,0,0.004,0.001,0.006,0.001c-0.004-0.001-0.003,0-0.006-0.001l0,0c0.004,0,0.005,0.001,0.012,0.001
					c0.096,0.01,0.193,0.015,0.29,0.018c0.079,0.002,0.158,0.007,0.237,0.011c0.023-0.432,0.044-0.864,0.075-1.296
					c0.175-2.434,0.439-4.863,0.796-7.277c0.715-4.843,1.804-9.631,3.292-14.296c1.181-3.702,2.533-7.372,4.063-10.945
					c1.524-3.56,3.278-7.034,5.442-10.251c2.094-3.113,4.627-6.029,7.678-8.238c0.366-0.265,0.745-0.513,1.127-0.755
					C78.83,124.766,78.748,124.651,78.646,124.715z"/>
				<path style="fill:#8AB676;" d="M58.231,171.181c0.958,0.1,1.916-0.025,2.844-0.278c0.26-0.092,0.516-0.189,0.767-0.286
					c1.867-0.723,3.578-1.948,4.799-3.542c0.691-0.902,1.206-1.907,1.534-2.995c0.039-0.129-0.035-0.22-0.166-0.243
					c-1.905-0.334-3.976,0.27-5.704,1.045c-1.865,0.837-3.481,2.048-4.792,3.608c-0.47,0.669-0.852,1.398-1.112,2.168
					C56.972,170.936,57.588,171.114,58.231,171.181z"/>
				<path style="fill:#5B895D;" d="M59.291,165.572c0.931,0.251,1.896,0.278,2.852,0.175c0.271-0.05,0.539-0.105,0.803-0.161
					c1.958-0.419,3.841-1.358,5.298-2.739c0.825-0.781,1.492-1.693,1.987-2.715c0.059-0.121,0-0.223-0.126-0.266
					c-1.828-0.631-3.969-0.362-5.797,0.131c-1.973,0.531-3.761,1.472-5.303,2.805c-0.569,0.587-1.062,1.246-1.441,1.965
					C58.087,165.131,58.666,165.404,59.291,165.572z"/>
				<path style="fill:#8AB676;" d="M60.376,160.191c0.784,0.269,1.609,0.342,2.432,0.298c0.234-0.03,0.467-0.065,0.695-0.102
					c1.696-0.272,3.353-1.009,4.667-2.158c0.744-0.65,1.359-1.423,1.833-2.303c0.056-0.104,0.011-0.197-0.095-0.242
					c-1.534-0.65-3.378-0.52-4.967-0.176c-1.714,0.371-3.289,1.114-4.674,2.217c-0.516,0.491-0.97,1.05-1.328,1.668
					C59.367,159.739,59.85,160.01,60.376,160.191z"/>
				<path style="fill:#5B895D;" d="M61.615,156.306c0.811,0.162,1.638,0.124,2.449-0.029c0.229-0.061,0.455-0.127,0.676-0.194
					c1.648-0.496,3.199-1.448,4.359-2.763c0.656-0.744,1.171-1.593,1.53-2.529c0.043-0.111-0.014-0.197-0.124-0.227
					c-1.602-0.44-3.415-0.065-4.947,0.488c-1.654,0.597-3.123,1.543-4.358,2.822c-0.45,0.555-0.831,1.171-1.109,1.831
					C60.558,155.993,61.07,156.198,61.615,156.306z"/>
				<path style="fill:#8AB676;" d="M63.083,151.552c0.811,0.162,1.638,0.124,2.449-0.029c0.229-0.061,0.455-0.127,0.676-0.194
					c1.648-0.496,3.199-1.448,4.359-2.763c0.656-0.744,1.171-1.593,1.53-2.529c0.043-0.111-0.014-0.197-0.124-0.228
					c-1.602-0.44-3.415-0.065-4.947,0.488c-1.654,0.597-3.123,1.543-4.358,2.822c-0.45,0.555-0.831,1.171-1.109,1.831
					C62.027,151.239,62.539,151.443,63.083,151.552z"/>
				<path style="fill:#5B895D;" d="M65.006,146.788c0.811,0.162,1.638,0.124,2.449-0.029c0.229-0.061,0.455-0.127,0.676-0.194
					c1.648-0.496,3.199-1.448,4.359-2.763c0.656-0.744,1.171-1.593,1.53-2.529c0.043-0.111-0.014-0.197-0.124-0.228
					c-1.602-0.44-3.415-0.065-4.947,0.488c-1.654,0.597-3.123,1.543-4.358,2.822c-0.45,0.555-0.831,1.171-1.109,1.831
					C63.949,146.475,64.462,146.68,65.006,146.788z"/>
				<path style="fill:#8AB676;" d="M66.503,143.225c0.811,0.162,1.638,0.124,2.449-0.029c0.229-0.061,0.455-0.127,0.676-0.194
					c1.648-0.496,3.199-1.448,4.359-2.763c0.656-0.744,1.171-1.593,1.53-2.529c0.043-0.111-0.014-0.197-0.124-0.227
					c-1.602-0.44-3.415-0.065-4.947,0.488c-1.654,0.597-3.123,1.543-4.358,2.822c-0.45,0.555-0.831,1.171-1.109,1.831
					C65.446,142.912,65.958,143.116,66.503,143.225z"/>
				<path style="fill:#5B895D;" d="M68.36,139.36c0.811,0.162,1.638,0.124,2.449-0.029c0.229-0.061,0.455-0.127,0.676-0.194
					c1.648-0.496,3.199-1.448,4.359-2.763c0.656-0.744,1.171-1.593,1.53-2.529c0.043-0.111-0.014-0.197-0.124-0.228
					c-1.602-0.44-3.415-0.065-4.947,0.488c-1.654,0.597-3.123,1.543-4.358,2.822c-0.45,0.555-0.831,1.17-1.109,1.831
					C67.303,139.047,67.815,139.251,68.36,139.36z"/>
				<path style="fill:#8AB676;" d="M75.003,128.718c0.683-0.245,1.289-0.645,1.829-1.123c0.144-0.148,0.284-0.299,0.421-0.449
					c1.015-1.111,1.751-2.518,2.028-4.018c0.157-0.849,0.159-1.713,0.006-2.571c-0.018-0.102-0.1-0.141-0.197-0.114
					c-1.405,0.393-2.598,1.488-3.501,2.59c-0.974,1.189-1.651,2.554-2.001,4.062c-0.087,0.616-0.095,1.245-0.006,1.862
					C74.067,128.961,74.545,128.883,75.003,128.718z"/>
				<path style="fill:#5B895D;" d="M73.887,130.529c0.629,0.125,1.271,0.096,1.901-0.022c0.177-0.048,0.353-0.099,0.525-0.151
					c1.279-0.385,2.483-1.124,3.383-2.144c0.509-0.577,0.909-1.236,1.188-1.963c0.033-0.086-0.011-0.153-0.096-0.176
					c-1.243-0.342-2.65-0.05-3.839,0.379c-1.284,0.463-2.424,1.198-3.382,2.19c-0.35,0.431-0.645,0.909-0.861,1.421
					C73.067,130.286,73.464,130.445,73.887,130.529z"/>
				<path style="fill:#8AB676;" d="M70.97,135.144c0.811,0.162,1.638,0.124,2.449-0.029c0.229-0.061,0.455-0.127,0.676-0.194
					c1.648-0.496,3.199-1.448,4.359-2.763c0.656-0.744,1.171-1.593,1.53-2.529c0.042-0.111-0.014-0.197-0.124-0.228
					c-1.602-0.44-3.415-0.065-4.947,0.488c-1.654,0.597-3.123,1.543-4.358,2.822c-0.45,0.555-0.831,1.171-1.109,1.831
					C69.913,134.831,70.425,135.035,70.97,135.144z"/>
			</g>
			<g>
				<path style="fill:#78A067;" d="M22.249,118.694c0.45-0.731,0.712-1.549,0.856-2.394c0.023-0.245,0.04-0.488,0.055-0.728
					c0.112-1.783-0.255-3.636-1.116-5.239c-0.487-0.907-1.128-1.714-1.909-2.402c-0.093-0.081-0.197-0.058-0.266,0.039
					c-1.007,1.4-1.295,3.3-1.31,4.991c-0.016,1.825,0.375,3.596,1.174,5.26c0.378,0.639,0.839,1.231,1.382,1.74
					C21.563,119.609,21.946,119.185,22.249,118.694z"/>
				<path style="fill:#5B895D;" d="M26.162,124.336c0.45-0.731,0.712-1.549,0.856-2.394c0.023-0.245,0.04-0.488,0.055-0.728
					c0.112-1.783-0.255-3.636-1.116-5.239c-0.487-0.907-1.128-1.714-1.909-2.402c-0.093-0.081-0.197-0.058-0.266,0.039
					c-1.007,1.4-1.296,3.3-1.31,4.991c-0.016,1.825,0.375,3.596,1.174,5.26c0.378,0.639,0.839,1.231,1.382,1.74
					C25.476,125.251,25.859,124.826,26.162,124.336z"/>
				<path style="fill:#78A067;" d="M29.559,129.618c0.587-0.627,1.006-1.377,1.315-2.176c0.071-0.235,0.136-0.471,0.199-0.703
					c0.464-1.725,0.474-3.614-0.051-5.356c-0.297-0.986-0.764-1.904-1.393-2.734c-0.074-0.098-0.181-0.096-0.269-0.015
					c-1.265,1.172-1.926,2.976-2.277,4.63c-0.379,1.785-0.348,3.599,0.103,5.388c0.243,0.701,0.578,1.373,1.008,1.98
					C28.705,130.378,29.165,130.038,29.559,129.618z"/>
				<path style="fill:#5B895D;" d="M32.375,135.003c0.688-0.513,1.234-1.176,1.68-1.908c0.112-0.219,0.218-0.439,0.32-0.656
					c0.763-1.615,1.107-3.473,0.899-5.281c-0.118-1.023-0.415-2.009-0.886-2.937c-0.056-0.11-0.162-0.126-0.262-0.062
					c-1.453,0.929-2.423,2.588-3.062,4.154c-0.689,1.69-0.98,3.48-0.853,5.321c0.115,0.733,0.325,1.454,0.641,2.128
					C31.4,135.6,31.913,135.347,32.375,135.003z"/>
				<path style="fill:#78A067;" d="M35.236,142.097c0.823-0.59,1.484-1.341,2.03-2.164c0.138-0.245,0.269-0.492,0.397-0.736
					c0.946-1.81,1.411-3.874,1.227-5.865c-0.104-1.127-0.419-2.207-0.94-3.216c-0.062-0.12-0.185-0.134-0.304-0.06
					c-1.732,1.075-2.923,2.94-3.722,4.691c-0.863,1.89-1.263,3.878-1.175,5.908c0.111,0.806,0.333,1.596,0.68,2.33
					C34.074,142.789,34.684,142.492,35.236,142.097z"/>
				<path style="fill:#5B895D;" d="M37.37,148.136c0.828-0.457,1.522-1.1,2.118-1.832c0.154-0.222,0.303-0.447,0.447-0.669
					c1.073-1.649,1.725-3.625,1.768-5.629c0.024-1.134-0.153-2.255-0.53-3.337c-0.045-0.128-0.158-0.162-0.276-0.107
					c-1.724,0.797-3.03,2.463-3.96,4.077c-1.004,1.742-1.589,3.652-1.724,5.68c0.016,0.817,0.138,1.635,0.382,2.417
					C36.216,148.643,36.814,148.443,37.37,148.136z"/>
				<path style="fill:#8AB676;" d="M39.581,154.236c0.828-0.457,1.522-1.1,2.118-1.832c0.154-0.222,0.303-0.447,0.447-0.669
					c1.073-1.649,1.725-3.625,1.768-5.629c0.024-1.134-0.153-2.255-0.53-3.338c-0.044-0.128-0.158-0.162-0.276-0.107
					c-1.724,0.797-3.03,2.463-3.96,4.077c-1.004,1.742-1.589,3.652-1.724,5.68c0.017,0.817,0.138,1.635,0.382,2.417
					C38.428,154.743,39.026,154.543,39.581,154.236z"/>
				<path style="fill:#5B895D;" d="M40.879,160.89c0.883-0.337,1.661-0.877,2.352-1.519c0.184-0.199,0.362-0.4,0.536-0.6
					c1.292-1.483,2.213-3.349,2.535-5.328c0.182-1.12,0.162-2.254-0.06-3.379c-0.026-0.133-0.134-0.182-0.259-0.144
					c-1.818,0.549-3.343,2.017-4.489,3.485c-1.237,1.585-2.082,3.396-2.498,5.385c-0.098,0.812-0.091,1.638,0.042,2.447
					C39.666,161.231,40.286,161.116,40.879,160.89z"/>
				<path style="fill:#8AB676;" d="M42.619,166.555c0.883-0.337,1.661-0.877,2.352-1.519c0.184-0.198,0.362-0.4,0.536-0.6
					c1.292-1.484,2.213-3.35,2.535-5.328c0.182-1.12,0.162-2.254-0.06-3.379c-0.026-0.133-0.134-0.182-0.259-0.145
					c-1.818,0.549-3.343,2.017-4.489,3.485c-1.237,1.585-2.082,3.395-2.498,5.385c-0.097,0.812-0.091,1.639,0.042,2.447
					C41.407,166.896,42.027,166.781,42.619,166.555z"/>
				<path style="fill:#5B895D;" d="M43.719,174.761c0.913-0.365,1.715-0.953,2.427-1.655c0.189-0.217,0.372-0.438,0.551-0.656
					c1.328-1.624,2.269-3.671,2.586-5.847c0.18-1.232,0.151-2.481-0.088-3.721c-0.028-0.147-0.14-0.202-0.27-0.161
					c-1.881,0.591-3.451,2.195-4.627,3.803c-1.27,1.736-2.132,3.723-2.548,5.91c-0.095,0.893-0.081,1.804,0.063,2.695
					C42.464,175.126,43.106,175.005,43.719,174.761z"/>
				<path style="fill:#446B47;" d="M42.72,178.035c-0.292-2.885-0.676-5.761-1.16-8.619c-1.098-6.484-2.696-12.887-4.838-19.106
					c-1.656-4.809-3.443-9.583-5.549-14.216c-2.156-4.744-4.661-9.368-7.783-13.552c-3.023-4.051-6.62-7.584-10.915-10.272
					c-0.137-0.085-0.247,0.069-0.109,0.156c0.511,0.323,1.018,0.655,1.508,1.009c4.081,2.955,7.469,6.854,10.27,11.018
					c2.894,4.303,5.239,8.949,7.278,13.71c2.046,4.778,3.855,9.686,5.434,14.638c1.99,6.239,3.446,12.643,4.403,19.12
					c0.296,2.002,0.538,4.012,0.74,6.026C42.236,177.999,42.477,178.028,42.72,178.035z"/>
				<path style="fill:#8AB676;" d="M39.78,174.418c-1.282,0.134-2.563-0.033-3.804-0.372c-0.347-0.123-0.69-0.252-1.026-0.382
					c-2.497-0.967-4.786-2.606-6.418-4.737c-0.924-1.206-1.613-2.551-2.051-4.005c-0.052-0.172,0.047-0.294,0.223-0.325
					c2.548-0.447,5.318,0.361,7.628,1.398c2.494,1.119,4.655,2.739,6.41,4.826c0.628,0.895,1.139,1.87,1.487,2.9
					C41.464,174.09,40.641,174.328,39.78,174.418z"/>
				<path style="fill:#5B895D;" d="M38.363,166.916c-1.245,0.335-2.536,0.372-3.815,0.234c-0.363-0.066-0.722-0.14-1.074-0.215
					c-2.619-0.56-5.138-1.817-7.086-3.663c-1.103-1.045-1.996-2.264-2.658-3.631c-0.079-0.162,0-0.298,0.168-0.356
					c2.445-0.844,5.308-0.484,7.753,0.175c2.639,0.711,5.03,1.969,7.092,3.752c0.762,0.784,1.421,1.667,1.927,2.629
					C39.973,166.326,39.198,166.691,38.363,166.916z"/>
				<path style="fill:#8AB676;" d="M36.911,159.719c-1.049,0.359-2.152,0.457-3.253,0.399c-0.313-0.041-0.624-0.088-0.929-0.137
					c-2.268-0.364-4.484-1.349-6.242-2.886c-0.995-0.87-1.818-1.904-2.451-3.081c-0.075-0.139-0.014-0.264,0.127-0.324
					c2.051-0.87,4.518-0.696,6.643-0.236c2.293,0.496,4.399,1.489,6.251,2.965c0.69,0.656,1.297,1.404,1.777,2.23
					C38.26,159.115,37.615,159.477,36.911,159.719z"/>
				<path style="fill:#5B895D;" d="M35.255,154.523c-1.085,0.216-2.191,0.166-3.275-0.038c-0.306-0.082-0.608-0.17-0.905-0.26
					c-2.204-0.663-4.279-1.937-5.83-3.695c-0.878-0.995-1.566-2.131-2.047-3.382c-0.057-0.148,0.019-0.264,0.166-0.304
					c2.142-0.589,4.567-0.087,6.617,0.653c2.212,0.798,4.177,2.064,5.829,3.774c0.602,0.743,1.111,1.566,1.484,2.449
					C36.668,154.105,35.982,154.378,35.255,154.523z"/>
				<path style="fill:#8AB676;" d="M33.291,148.164c-1.085,0.216-2.191,0.166-3.275-0.038c-0.306-0.082-0.608-0.17-0.905-0.259
					c-2.204-0.664-4.279-1.937-5.83-3.695c-0.878-0.995-1.566-2.13-2.047-3.382c-0.057-0.148,0.019-0.264,0.166-0.304
					c2.142-0.589,4.567-0.087,6.617,0.653c2.212,0.798,4.177,2.064,5.829,3.774c0.602,0.743,1.111,1.565,1.484,2.449
					C34.704,147.746,34.019,148.019,33.291,148.164z"/>
				<path style="fill:#5B895D;" d="M30.719,141.794c-1.085,0.216-2.191,0.166-3.275-0.038c-0.306-0.082-0.608-0.17-0.905-0.26
					c-2.204-0.664-4.279-1.937-5.83-3.695c-0.878-0.995-1.566-2.13-2.047-3.382c-0.057-0.148,0.019-0.264,0.166-0.304
					c2.142-0.589,4.567-0.087,6.617,0.653c2.212,0.798,4.177,2.064,5.829,3.774c0.602,0.743,1.111,1.565,1.484,2.449
					C32.132,141.375,31.447,141.648,30.719,141.794z"/>
				<path style="fill:#8AB676;" d="M28.717,137.027c-1.085,0.216-2.191,0.166-3.275-0.038c-0.306-0.082-0.608-0.17-0.904-0.26
					c-2.204-0.664-4.279-1.937-5.83-3.695c-0.878-0.995-1.566-2.131-2.047-3.382c-0.057-0.148,0.019-0.264,0.166-0.304
					c2.142-0.589,4.567-0.087,6.617,0.653c2.212,0.798,4.177,2.064,5.829,3.774c0.602,0.743,1.111,1.565,1.484,2.449
					C30.13,136.609,29.445,136.882,28.717,137.027z"/>
				<path style="fill:#5B895D;" d="M26.233,131.858c-1.085,0.217-2.191,0.166-3.275-0.038c-0.306-0.082-0.608-0.17-0.905-0.26
					c-2.204-0.663-4.279-1.937-5.83-3.695c-0.878-0.995-1.566-2.131-2.047-3.382c-0.057-0.148,0.019-0.264,0.166-0.304
					c2.142-0.589,4.567-0.087,6.617,0.653c2.212,0.798,4.177,2.064,5.829,3.774c0.602,0.743,1.111,1.565,1.484,2.449
					C27.646,131.44,26.961,131.713,26.233,131.858z"/>
				<path style="fill:#8AB676;" d="M17.348,117.626c-0.914-0.327-1.723-0.862-2.447-1.502c-0.193-0.199-0.38-0.401-0.563-0.6
					c-1.357-1.486-2.342-3.367-2.713-5.374c-0.21-1.136-0.213-2.291-0.008-3.439c0.024-0.136,0.134-0.188,0.263-0.152
					c1.878,0.525,3.475,1.991,4.682,3.464c1.303,1.59,2.208,3.416,2.676,5.433c0.117,0.824,0.127,1.665,0.007,2.491
					C18.6,117.95,17.961,117.845,17.348,117.626z"/>
				<path style="fill:#5B895D;" d="M18.841,120.048c-0.842,0.168-1.7,0.129-2.542-0.03c-0.237-0.063-0.472-0.132-0.702-0.201
					c-1.71-0.515-3.321-1.503-4.524-2.868c-0.681-0.772-1.215-1.654-1.588-2.625c-0.044-0.115,0.015-0.205,0.129-0.236
					c1.663-0.457,3.544-0.067,5.135,0.507c1.717,0.62,3.242,1.602,4.524,2.929c0.467,0.576,0.862,1.215,1.152,1.9
					C19.938,119.723,19.406,119.935,18.841,120.048z"/>
				<path style="fill:#8AB676;" d="M22.743,126.219c-1.085,0.216-2.191,0.166-3.275-0.038c-0.306-0.082-0.608-0.17-0.904-0.259
					c-2.204-0.664-4.279-1.937-5.83-3.695c-0.878-0.995-1.566-2.131-2.047-3.382c-0.057-0.148,0.019-0.264,0.166-0.304
					c2.142-0.589,4.567-0.087,6.617,0.653c2.212,0.798,4.177,2.064,5.829,3.774c0.602,0.743,1.111,1.565,1.484,2.449
					C24.156,125.801,23.471,126.074,22.743,126.219z"/>
			</g>
		</g>
	</g>
	<g>
		<path style="fill:#7A85B3;" d="M254.176,115.564h-28.59l-5.809,6.768l2.007-6.768h-7.224c-1.919,0-3.475-1.556-3.475-3.475V91.436
			c0-1.919,1.556-3.475,3.475-3.475h39.617c1.919,0,3.475,1.556,3.475,3.475v20.652
			C257.651,114.008,256.095,115.564,254.176,115.564z"/>
		<g>
			<path style="fill:#FFFFFF;" d="M239.74,93.216h-24.674c-0.525,0-0.95-0.425-0.95-0.95c0-0.525,0.425-0.95,0.95-0.95h24.674
				c0.525,0,0.95,0.425,0.95,0.95C240.689,92.791,240.264,93.216,239.74,93.216z"/>
			<path style="fill:#FFFFFF;" d="M245.74,109.976h-30.675c-0.525,0-0.95-0.425-0.95-0.95c0-0.525,0.425-0.95,0.95-0.95h30.675
				c0.525,0,0.95,0.425,0.95,0.95C246.691,109.551,246.265,109.976,245.74,109.976z"/>
			<path style="fill:#FFFFFF;" d="M249.723,104.39h-34.657c-0.525,0-0.95-0.425-0.95-0.95c0-0.525,0.425-0.95,0.95-0.95h34.657
				c0.525,0,0.95,0.425,0.95,0.95C250.673,103.964,250.247,104.39,249.723,104.39z"/>
			<g>
				<path style="fill:#FFFFFF;" d="M236.312,98.803h-21.246c-0.525,0-0.95-0.425-0.95-0.95c0-0.525,0.425-0.95,0.95-0.95h21.246
					c0.525,0,0.95,0.425,0.95,0.95C237.262,98.377,236.837,98.803,236.312,98.803z"/>
				<path style="fill:#FFFFFF;" d="M249.763,98.803h-9.629c-0.525,0-0.95-0.425-0.95-0.95c0-0.525,0.425-0.95,0.95-0.95h9.629
					c0.525,0,0.95,0.425,0.95,0.95C250.713,98.377,250.288,98.803,249.763,98.803z"/>
			</g>
		</g>
	</g>
	<g>
		<rect x="168.775" y="189.282" style="fill:#646669;" width="29.881" height="1.002"/>
		<path style="fill:#646669;" d="M177.24,190.284h-27.114c-0.545,0-1.026-0.356-1.186-0.877l-8.765-28.649
			c-0.244-0.797,0.352-1.603,1.186-1.603h27.114c0.545,0,1.026,0.356,1.186,0.877l8.765,28.649
			C178.669,189.478,178.073,190.284,177.24,190.284z"/>
		<path style="fill:#959B9A;" d="M176.558,190.284h-27.115c-0.545,0-1.026-0.356-1.186-0.877l-8.765-28.649
			c-0.244-0.797,0.352-1.603,1.186-1.603h27.114c0.545,0,1.026,0.356,1.186,0.877l8.765,28.649
			C177.988,189.478,177.392,190.284,176.558,190.284z"/>
		<path style="fill:#646669;" d="M159.007,175.143c0.377,1.36-0.42,2.462-1.78,2.462c-1.36,0-2.768-1.102-3.145-2.462
			c-0.377-1.36,0.42-2.462,1.78-2.462S158.63,173.783,159.007,175.143z"/>
	</g>
</g>
</svg>
